/* XPM */
static char * enemies_xpm[] = {
"64 64 182 2",
"  	c #5B9535",
". 	c #60A136",
"+ 	c #5D9B35",
"@ 	c #5E9838",
"# 	c #5F963A",
"$ 	c #2A541A",
"% 	c #355B25",
"& 	c #436D32",
"* 	c #3D642D",
"= 	c #355C28",
"- 	c #254B16",
"; 	c #68AA3D",
"> 	c #6BA942",
", 	c #63A23A",
"' 	c #509026",
") 	c #6CAC42",
"! 	c #385C27",
"~ 	c #2F5921",
"{ 	c #376129",
"] 	c #507F40",
"^ 	c #528141",
"/ 	c #5D9941",
"( 	c #59923F",
"_ 	c #598F40",
": 	c #437132",
"< 	c #385F28",
"[ 	c #67A83D",
"} 	c #64AA36",
"| 	c #599432",
"1 	c #668E54",
"2 	c #79A167",
"3 	c #8BAE77",
"4 	c #8EB178",
"5 	c #85A96E",
"6 	c #7CA268",
"7 	c #6A9254",
"8 	c #5C8545",
"9 	c #527D3D",
"0 	c #66A53D",
"a 	c #5B7D49",
"b 	c #6C8B5A",
"c 	c #779965",
"d 	c #87A574",
"e 	c #7A9B67",
"f 	c #81A36E",
"g 	c #4D7838",
"h 	c #497334",
"i 	c #6BAC40",
"j 	c #5EA331",
"k 	c #61A833",
"l 	c #638451",
"m 	c #19111B",
"n 	c #1D1D1E",
"o 	c #2D2D2E",
"p 	c #89AB6E",
"q 	c #484F42",
"r 	c #242424",
"s 	c #3D4F34",
"t 	c #5FA035",
"u 	c #609D39",
"v 	c #416F29",
"w 	c #668D4E",
"x 	c #809D66",
"y 	c #526C3F",
"z 	c #4D673B",
"A 	c #77A261",
"B 	c #5E8E49",
"C 	c #4D7F37",
"D 	c #3D6D29",
"E 	c #2D581D",
"F 	c #4E683C",
"G 	c #5A9932",
"H 	c #63A637",
"I 	c #376024",
"J 	c #3C6926",
"K 	c #41642F",
"L 	c #547236",
"M 	c #386525",
"N 	c #325C1F",
"O 	c #629D3C",
"P 	c #58972F",
"Q 	c #153904",
"R 	c #20440F",
"S 	c #325621",
"T 	c #32571F",
"U 	c #1D420B",
"V 	c #264516",
"W 	c #007272",
"X 	c #007B7B",
"Y 	c #008484",
"Z 	c #006362",
"` 	c #0B6159",
" .	c #163B0A",
"..	c #265512",
"+.	c #036964",
"@.	c #006B6B",
"#.	c #005D5D",
"$.	c #0F3400",
"%.	c #21530B",
"&.	c #008D8D",
"*.	c #008A8A",
"=.	c #1C4207",
"-.	c #009898",
";.	c #009494",
">.	c #00A2A2",
",.	c #029C9C",
"'.	c #009191",
").	c #008C8C",
"!.	c #00A3A3",
"~.	c #04B3B3",
"{.	c #00ADAD",
"].	c #04A2A2",
"^.	c #049D9D",
"/.	c #72915B",
"(.	c #6F915C",
"_.	c #0CBBBB",
":.	c #14C3C3",
"<.	c #15AFAF",
"[.	c #14ADAD",
"}.	c #759365",
"|.	c #1EC6C6",
"1.	c #1EB7B7",
"2.	c #02ADAD",
"3.	c #16BEBE",
"4.	c #698B57",
"5.	c #567644",
"6.	c #597543",
"7.	c #456733",
"8.	c #395729",
"9.	c #10046F",
"0.	c #1A0E79",
"a.	c #241883",
"b.	c #281B87",
"c.	c #281C88",
"d.	c #170E67",
"e.	c #180E67",
"f.	c #180266",
"g.	c #2B491B",
"h.	c #0A0069",
"i.	c #160A75",
"j.	c #040053",
"k.	c #28440D",
"l.	c #67A241",
"m.	c #65A13E",
"n.	c #6CAB43",
"o.	c #5C9E31",
"p.	c #221682",
"q.	c #1F1378",
"r.	c #21147D",
"s.	c #599334",
"t.	c #57972E",
"u.	c #362A95",
"v.	c #382C97",
"w.	c #31268C",
"x.	c #4539A4",
"y.	c #4A3EA9",
"z.	c #3E329D",
"A.	c #65A43B",
"B.	c #42379F",
"C.	c #65A938",
"D.	c #6AAD3D",
"E.	c #5246B1",
"F.	c #5A4EB9",
"G.	c #4C40AB",
"H.	c #5B9F2F",
"I.	c #5045AE",
"J.	c #574EA7",
"K.	c #584FA7",
"L.	c #594CB5",
"M.	c #6357C4",
"N.	c #6458C3",
"O.	c #5D9637",
"P.	c #5C50BB",
"Q.	c #63A438",
"R.	c #60993C",
"S.	c #68AB3B",
"T.	c #61A733",
"U.	c #4B4B4B",
"V.	c #464646",
"W.	c #67AC39",
"X.	c #63A836",
"Y.	c #3D3D3D",
"        . . . . + + + @ # # # # $ $ $ $ % % % % & & & & * * * * = = = = = = = = % % % % $ - - - - ; ; > , , , , ' ' ' ' ) ) ) ) ",
"        . . . . + + + + # # # # $ $ $ $ % % % % & & & & * * * * ! = = = = = = = % % % % $ - - - - ; ; ; , , . , ' ' ' ' ) ) ) ) ",
"        . . . . + + + + # # # # ~ ~ ~ ~ { { { { & & & & ] ^ ^ ^ / / / / ( _ _ _ : = < < ~ $ $ $ $ ; ; ; . . . . ' ' ' ' ) ) ) ) ",
"        . . . . + + + + # # # # ~ ~ ~ ~ { { { { & & & & ] ^ ^ ^ / / / / ( _ _ _ : = = < ~ $ $ $ $ ; ; ; . . . . ' ' ' ' ) ) ) ) ",
"[ [ [ [ ) ) ) ) } } } } | | | | { { { { 1 1 1 1 2 2 2 2 3 4 4 4 5 5 5 5 6 6 6 6 7 8 8 8 9 : : : : . . . ) ) ) ) 0 0 0 0 > > > > ",
"[ [ [ [ ) ) ) ) } } } } | | | | { { { { 1 1 1 1 2 2 2 2 3 4 4 4 5 5 5 5 6 6 6 6 7 8 8 8 9 : : : : . . . ) ) ) ) [ [ 0 0 > > > > ",
"[ [ [ [ ) ) ) ) } } } } | | | | a a a a b b b b c c c c d d d d c e e e f 5 5 5 1 9 9 9 g h h h h . . . ) ) ) ) [ [ [ [ > > > > ",
"[ [ [ [ ) ) ) ) } } } } | | | | a a a a b b b b c c c c d d d d c e e e f 5 5 5 1 9 9 9 g h h h h . . . ) ) ) ) [ [ [ [ i > > > ",
"j j j j k k k k i i i i , , , , l l l l m n n n o o o o f p p p 4 4 4 4 q o o o r n n n s a a a a 0 0 0 t t t t u u u u ; ; ; ; ",
"j j j j k k k k i i i i , , , , l l l l m n n n o o o o f p p p 4 4 4 4 q o o o r n n n s a a a a 0 0 0 t t t t u u u u ; ; ; ; ",
"j j j j k k k k i i i i , , , , v v v v w w w w x e e e y z z z z z z z 7 A A A B C C C D E E E E 0 0 0 t t t t u u u u ; ; ; ; ",
"j j j j k k k k i i i i , , , , v v v v w w w w e e e e y F F F z F F F 7 A A A B C C C D E E E E 0 0 0 t t t t u u u u ; ; ; ; ",
"G G G G + + + + H H H H H H H . % I I I J J J J K K K K L L L L L L L L * ! ! ! { M M M N $ $ $ $ O O O | | | P j j j j + + @ @ ",
"G G G G + + + + H H H H H H H H I I I I J J J J * * * * L L L L L L L L * ! ! ! I M M M N $ $ $ $ O O O | | | | j j j j + + @ @ ",
"G G G G + + + + H H H H H H H H Q Q Q Q R R R R S S S S ! ! ! ! K K K K % S S S T T T T - U U U U O O O | | | | j j j j + + + + ",
"G G G G + + + + H H H H H H H H Q Q Q Q V V V V S S S S ! ! ! ! K K K K % S S S T T T T - U U U U O O O | | | | j j j j + + + + ",
"W W W W X Y Y Y Y Y Y Y X X X X Z Z Z Z ` ` ` `  . . . .........U U U U  . . . .` ` ` +.+.+.+.+.+.X X X Y Y Y Y X Y Y X W W W W ",
"@.@.@.@.X X X X Y Y Y Y X X X X #.#.#.#.+.+.+.+.$.$.$.$.%.%.%.%.Q Q Q Q $.$.$.$.+.+.+.+.Z Z Z Z X X X X Y Y Y Y X X X X @.@.@.@.",
"&.*.*.*.Y Y Y Y &.&.&.&.X X X X W W W W X X X X X X X X U U U U U U U U X X X X Y Y Y Y X X X X X X X X &.&.&.&.Y Y Y Y *.*.*.*.",
"*.*.*.*.Y Y Y Y &.&.&.&.X X X X W W W W X X X X X X X X =.U U U U U U U X X X X Y Y Y Y X X X X X X X X &.&.&.&.Y Y Y Y *.*.*.*.",
"-.;.;.;.>.>.>.>.>.>.>.>.,.,.,.,.Y Y Y Y ;.'.'.'.;.;.;.;.'.'.'.'.).*.*.).;.;.;.;.'.'.'.'.Y Y Y Y >.,.,.,.>.>.>.>.>.>.>.>.-.;.;.;.",
"-.-.-.-.>.>.>.>.>.>.>.>.,.,.,.,.Y Y Y Y ;.'.'.;.-.-.-.-.'.'.'.'.&.&.&.&.;.-.-.-.'.'.'.'.Y Y Y Y >.,.,.,.>.>.>.>.!.>.>.>.;.-.-.-.",
",.,.,.,.~.~.~.~.~.~.~.~.,.,.,.,.'.'.'.'.>.>.>.>.{.{.{.{.].].].].^.^.^.^.{.{.{.{.>.>.>.>.'.'.'.'.,.,.,.,.~.~.~.~.~.~.~.~.-.,.,.,.",
",.,.,.,.~.~.~.~.~.~.~.~.,.,.,.,.'.'.'.'.>.>.>.>.{.{.{.{.].].].].^.^.^.^.{.{.{.{.>.>.>.>.'.'.'.'.,.,.,.,.~.~.~.~.~.~.~.~.-.,.,.,.",
"/.(.(.(.c c c c c c c c (.(.(.(.Y Y Y Y ;.;.;.;._._._._.:.:.:.:.<.<.<.[._._._._.;.;.;.;.Y Y Y Y /.(.(.(.c c c c c c c c (.(.(.(.",
"(.(.(.(.c c c c c c c c (.(.(.(.Y Y Y Y ;.;.;.;._._._._.:.:.:.:.<.<.<.[._._._._.;.;.;.;.Y Y Y Y /.(.(.(.c c c c c c c c (.(.(.(.",
"c c c c }.}.}.}.f f f f c c c c Y Y *.*.-.-.,.-.:.:.:.:.|.|.|.|.1.1.1.1.:.:.:.:.!.!.!.!.Y Y Y Y e c c c f f f f }.}.}.}.c c c c ",
"c c c c }.}.}.}.f f f f c c c c Y Y *.*.,.,.,.-.:.:.:.:.|.|.|.|.1.1.1.1.:.:.:.:.{.2.!.!.Y Y Y Y e c c c f f f f }.}.}.}.c c c c ",
"c c c c }.}.}.}.f f f f b b b b *.*.*.*.~.~.~.~.:.:.:.:.1.1.1.1.|.|.|.|.:.:.:.:.2.2.2.2.*.*.*.*.b b b b f f f f }.}.}.}.c c c c ",
"c c c c }.}.}.}.f f f f b b b b *.*.*.*.~.~.~.~.:.:.:.:.1.1.1.1.|.|.|.|.:.:.:.:.2.2.2.2.*.*.*.*.b b b b f f f f }.}.}.}.c c c c ",
"(.(.(.(.e e e e e e e e l l l l Y Y Y Y {.{.{.{._._._._.<.<.<.<.3.3.3.3._._._._.!.!.!.!.Y Y Y Y l l l l e e e e e e e e (.(.(.(.",
"(.(.(.(.e e e e e e e e l l l l Y Y Y Y {.{.{.{._._._._.<.<.<.<.3.3.3.3._._._._.!.!.!.!.Y Y Y Y l l l l e e e e e e e e (.(.(.(.",
"l l l l 4.4.4.4.4.4.4.4.5.5.5.5.'.'.'.'.!.>.>.>.{.{.{.{.^.^.^.^.2.2.2.2.{.{.{.~.!.!.>.>.X X X X 6.5.5.5.4.4.4.4.4.4.4.4.l l l l ",
"l l l l 4.4.4.4.4.4.4.4.5.5.5.5.'.'.'.'.!.>.>.>.{.{.{.{.].^.^.^.2.2.2.2.{.{.{.{.!.!.>.>.X X X X 6.5.5.5.4.4.4.4.4.4.4.4.l l l l ",
"5.5.5.5.a a a a a a a a 5.5.5.5.W W W W X Y Y Y *.*.*.*.>.>.>.>.!.!.!.!.-.-.-.-.;.;.;.;.W W W W 5.5.5.5.a a a a a a a a 5.5.5.5.",
"5.5.5.5.a a a a a a a a 5.5.5.5.W W W W X Y Y Y *.*.*.*.>.>.>.>.!.!.!.!.-.-.-.-.;.;.;.;.W W W W 5.5.5.5.a a a a a a a a 5.5.5.5.",
"K K K K 7.7.7.7.8.8.8.8.K 7.K K 9.9.9.9.0.0.0.0.a.a.a.a.b.b.b.b.c.c.c.b.d.e.e.f.Y Y Y Y Z +.+.+.K K K K 8.8.8.8.7.7.7.7.K K K K ",
"K K K K 7.7.7.7.8.8.8.8.K 7.K K 9.9.9.9.0.0.0.0.a.a.a.a.c.b.b.b.c.c.c.b.d.e.e.f.Y Y Y Y Z +.Z +.K K K K 8.8.8.8.7.7.7.7.K K K K ",
"V V V V ! ! ! ! g.g.g.g.V V V V h.h.h.h.9.9.9.9.i.i.i.i.0.0.0.0.0.0.0.0.i.i.i.i.j.j.j.j.#.#.#.#.k.V V V g.g.g.g.! ! ! ! V V V V ",
"V V V V ! ! ! ! g.g.g.g.V V V V h.h.h.h.9.9.9.9.i.i.i.i.0.0.0.0.0.0.0.0.i.i.i.i.j.j.j.j.#.#.#.#.k.V V V g.g.g.g.! ! ! ! V V V V ",
"l.l.l.l.m.m.m.m.n.n.n.n.; ; ; ; i.i.i.i.0.0.0.0.0.0.0.0.i.i.i.i.i.i.i.i.0.0.0.0.0.0.0.0.i.i.i.i.o.o.o.o.m.m.m.m.u u u u u u u u ",
"l.l.l.l.m.m.m.m.n.n.n.n.; ; ; ; i.i.i.i.0.0.0.0.0.0.0.0.i.i.i.i.i.i.i.i.0.0.0.0.0.0.0.0.i.i.i.i.o.o.o.o.m.m.m.m.u u u u u u u u ",
"l.l.l.l.m.m.m.m.n.n.n.n.; ; ; ; p.p.p.p.p.a.a.a.p.a.a.a.p.p.p.p.q.p.p.p.p.a.a.a.a.a.a.a.p.p.p.p.o.o.o.o.m.m.m.m.u u u u u u u u ",
"l.l.l.l.m.m.m.m.n.n.n.n.; ; ; ; p.p.p.p.p.a.a.a.p.a.a.a.p.p.p.p.r.p.p.p.p.a.a.a.a.a.a.a.p.p.p.p.o.o.o.o.m.m.m.m.u u u u u u u u ",
"m.m.m.m.s.s.s.s.o.o.o.o.t.t.t.t.u.u.u.u.v.v.v.v.v.v.v.v.u.u.u.u.w.u.u.u.v.v.v.v.v.v.v.v.u.u.u.u.G G G G n.n.n.n.P P P P G G G G ",
"m.m.m.m.s.s.s.s.o.o.o.o.t.t.t.t.u.u.u.u.v.v.v.v.v.v.v.v.u.u.u.u.u.u.u.u.v.v.v.v.v.v.v.v.u.u.u.u.G G G G n.n.n.n.P P P P G G G G ",
"m.m.m.m.s.s.s.s.o.o.o.o.t.t.t.t.x.x.x.x.y.y.y.y.y.y.y.y.x.x.x.x.z.x.x.x.y.y.y.y.y.y.y.y.x.x.x.x.G G G G n.n.n.n.P P P P G G G G ",
"A.m.m.m.s.s.s.s.o.o.o.o.t.t.t.t.x.x.x.x.y.y.y.y.y.y.y.y.x.x.x.x.B.x.x.x.y.y.y.y.y.y.y.y.x.x.x.x.G G G G n.n.n.n.P P P P G G G G ",
"    s.s.m.m.m.m.C.C.C.D.D.D.D.D.E.E.E.E.F.F.F.F.F.F.F.F.E.E.E.E.G.E.E.E.F.F.F.F.F.F.F.F.E.E.E.E.j j j j H.H.H.H.) ) ) ) ; ; > > ",
"    s.s.m.m.m.m.C.C.[ [ D.D.D.D.E.E.E.E.F.F.F.F.F.F.F.F.E.E.E.E.I.E.E.E.F.F.F.F.F.F.F.F.E.E.E.E.j j j j H.H.H.H.) ) ) ) ; ; > > ",
"    s.s.m.m.m.m.C.C.C.C.D.D.D.D.F.F.F.F.J.K.K.K.K.K.K.K.F.F.F.F.L.F.F.F.K.K.K.K.K.K.K.K.F.F.F.F.j j j j H.H.H.H.) ) ) ) ; ; ; > ",
"    s.s.m.m.m.m.C.C.C.C.D.D.D.D.F.F.F.F.J.K.K.K.K.K.K.K.F.F.F.F.L.F.F.F.K.K.K.K.K.K.K.K.F.F.F.F.j j j j H.H.H.H.) ) ) ) ; ; ; > ",
"u u u u j j j j         G G G G F.F.F.F.M.N.N.N.N.N.N.N.F.F.F.F.L.F.F.F.N.N.N.N.N.N.N.N.F.F.F.F.j j j j m.m.m.m.O.O.O.# o.o.o.o.",
"O u u u j j j j         G G G G F.F.F.F.M.N.N.N.N.N.N.N.F.F.F.F.L.F.F.F.N.N.N.N.N.N.N.N.F.F.F.F.j j j j m.m.m.m.+ + O.O.o.o.o.o.",
"O O u u j j j j         G G G G E.E.E.E.F.P.P.P.P.P.P.P.E.E.E.E.I.E.E.E.P.P.P.P.P.P.P.P.E.E.E.E.j j j j m.m.m.m.+ + + + o.o.o.o.",
"O O u u j j j j         G G G G E.E.E.E.F.P.P.P.P.P.P.P.E.E.E.E.I.E.E.E.P.P.P.P.P.P.P.P.E.E.E.E.j j j j m.m.m.m.+ + + + o.o.o.o.",
"        Q.Q.Q.Q.# @ @ @ > > > > x.x.x.x.y.G.G.G.y.G.G.G.x.x.x.x.x.x.x.x.y.G.G.G.G.G.G.G.x.x.x.x.u u u u t t t t t t t t # # # # ",
"    | | Q.Q.Q.Q.# @ @ @ > > > > x.x.x.x.G.G.G.G.y.G.G.G.x.x.x.x.x.x.x.x.G.G.G.G.G.G.G.G.x.x.x.x.u u u u t t t t t t t t # # # # ",
"| | | | Q.Q.Q.Q.# # @ @ > > > > v.v.v.v.z.z.z.z.z.z.z.z.v.v.v.v.u.v.v.v.z.z.z.z.z.z.z.z.v.v.v.v.R.u u u t t t t t t t t # # # # ",
"| | | | Q.Q.Q.Q.# # @ @ > > > > v.v.v.v.z.z.z.z.z.z.z.z.v.v.v.v.u.v.v.v.z.z.z.z.z.z.z.z.v.v.v.v.R.u u u t t t t t t t t # # # # ",
"H H H H S.S.S.S.T.H T.T.O.O.O.O.U.U.U.U.U.U.U.U.U.U.U.U.U.U.U.U.V.U.U.U.U.U.U.U.U.U.U.U.U.U.U.U.W.W.W.W.G G G G R.R.O O , , , , ",
"H H H H S.S.S.S.H H T.T.O.O.O.O.U.U.U.U.U.U.U.U.U.U.U.U.U.U.U.U.V.U.U.U.U.U.U.U.U.U.U.U.U.U.U.U.W.W.W.W.G G G G R.R.R.R., , , , ",
"H X.H H S.S.S.S.H T.T.T.O.O.O.O.Y.Y.Y.Y.Y.Y.Y.Y.Y.Y.Y.Y.Y.Y.Y.Y.Y.Y.Y.Y.Y.Y.Y.Y.Y.Y.Y.Y.Y.Y.Y.Y.W.W.W.W.G G G G R.R.R.R., , , , ",
"H X.H H S.S.S.S.H T.T.T.O.O.O.O.Y.Y.Y.Y.Y.Y.Y.Y.Y.Y.Y.Y.Y.Y.Y.Y.Y.Y.Y.Y.Y.Y.Y.Y.Y.Y.Y.Y.Y.Y.Y.Y.W.W.W.W.G G G G R.R.R.R., , , , "};
