/* XPM */
static char * floor_xpm[] = {
"64 64 173 2",
"  	c #5B9535",
". 	c #60A136",
"+ 	c #5E9937",
"@ 	c #5E973A",
"# 	c #AF9651",
"$ 	c #A98E47",
"% 	c #AE934D",
"& 	c #886832",
"* 	c #69A93F",
"= 	c #61A137",
"- 	c #509026",
"; 	c #6DAD43",
"> 	c #906D38",
", 	c #8E6B35",
"' 	c #7A5B2B",
") 	c #6A431F",
"! 	c #67A83D",
"~ 	c #6CAC42",
"{ 	c #64AA35",
"] 	c #64AA36",
"^ 	c #599432",
"/ 	c #A4A4A4",
"( 	c #67A73D",
"_ 	c #6BAB41",
": 	c #9B773B",
"< 	c #765729",
"[ 	c #5D9B34",
"} 	c #5E9838",
"| 	c #6AAD3D",
"1 	c #5E9837",
"2 	c #5D9539",
"3 	c #629E3A",
"4 	c #573C1B",
"5 	c #5EA331",
"6 	c #61A833",
"7 	c #6BAC40",
"8 	c #63A33A",
"9 	c #353535",
"0 	c #785327",
"a 	c #65A33D",
"b 	c #5D9E33",
"c 	c #64AB36",
"d 	c #67AC39",
"e 	c #67A53F",
"f 	c #639F3C",
"g 	c #754622",
"h 	c #66A53D",
"i 	c #5FA035",
"j 	c #609C38",
"k 	c #68AA3D",
"l 	c #6F6F6F",
"m 	c #5A9932",
"n 	c #5D9B35",
"o 	c #63A637",
"p 	c #61A436",
"q 	c #5C9934",
"r 	c #5EA430",
"s 	c #65A13E",
"t 	c #639E3B",
"u 	c #6AA842",
"v 	c #60A135",
"w 	c #639E3C",
"x 	c #589530",
"y 	c #5EA132",
"z 	c #9E7C3D",
"A 	c #58992D",
"B 	c #60A533",
"C 	c #629D3C",
"D 	c #63A438",
"E 	c #63AB33",
"F 	c #61A634",
"G 	c #5DA230",
"H 	c #5E9E34",
"I 	c #5A9633",
"J 	c #5C9E31",
"K 	c #5A9D2E",
"L 	c #5D9D33",
"M 	c #62A735",
"N 	c #619C39",
"O 	c #60A236",
"P 	c #63AD33",
"Q 	c #61A832",
"R 	c #5D9A35",
"S 	c #60993C",
"T 	c #58972F",
"U 	c #609C39",
"V 	c #5D9F32",
"W 	c #62A933",
"X 	c #5C9A34",
"Y 	c #68AD3B",
"Z 	c #60983B",
"` 	c #6CAD42",
" .	c #5A9138",
"..	c #68AB3B",
"+.	c #67A63F",
"@.	c #A68949",
"#.	c #9F8240",
"$.	c #A48745",
"%.	c #937338",
"&.	c #64AE33",
"*.	c #5D9936",
"=.	c #674A22",
"-.	c #81592C",
";.	c #7F572A",
">.	c #724520",
",.	c #5E9A37",
"'.	c #62A437",
").	c #5E9638",
"!.	c #5E9738",
"~.	c #63A736",
"{.	c #434343",
"].	c #2E2E2E",
"^.	c #181818",
"/.	c #5FA133",
"(.	c #599731",
"_.	c #68A63E",
":.	c #6AAD3E",
"<.	c #7D5C2D",
"[.	c #8F6D35",
"}.	c #523919",
"|.	c #5D953A",
"1.	c #629B3C",
"2.	c #5E9D34",
"3.	c #64A03D",
"4.	c #63A934",
"5.	c #60A234",
"6.	c #65A03E",
"7.	c #5D9C34",
"8.	c #5D9937",
"9.	c #58962F",
"0.	c #5B9A32",
"a.	c #60A235",
"b.	c #60A532",
"c.	c #5D9637",
"d.	c #634721",
"e.	c #67A241",
"f.	c #6CAB43",
"g.	c #69AB3E",
"h.	c #5C9D31",
"i.	c #66A33E",
"j.	c #619E39",
"k.	c #64A33C",
"l.	c #599334",
"m.	c #5D9E32",
"n.	c #57972E",
"o.	c #5B9833",
"p.	c #5A9931",
"q.	c #5A9335",
"r.	c #67AB3B",
"s.	c #6AAC3E",
"t.	c #5EA131",
"u.	c #6AAB3F",
"v.	c #629F3B",
"w.	c #5B9435",
"x.	c #5A9831",
"y.	c #5EA231",
"z.	c #65A13D",
"A.	c #5D9837",
"B.	c #5A9533",
"C.	c #63A638",
"D.	c #5F963A",
"E.	c #5F973A",
"F.	c #6BA942",
"G.	c #619C3B",
"H.	c #5FA034",
"I.	c #63A737",
"J.	c #61A733",
"K.	c #5D9737",
"L.	c #67AD39",
"M.	c #619B3C",
"N.	c #63A239",
"O.	c #5B3C1C",
"P.	c #493518",
"        . . . . + + + + @ @ @ @ # # $ $ $ $ $ $ $ $ # # # # % % $ $ # # # # # # # # # # # # & & * * * * = = = = - - - - ; ; ; ; ",
"        . . . . + + + + @ @ @ @ # # $ $ $ $ $ $ $ $ # # # # % % $ $ # # # # # # # # # # # # & & * * * * = = = = - - - - ; ; ; ; ",
"        . . . . + + + + @ @ @ @ # # > > , , ' ' , , , , & & & & & & & & & & , , & & , , > > ) ) * * * * = = = = - - - - ; ; ; ; ",
"        . . . . + + + + @ @ @ @ # # > > , , ' ' , , , , & & & & & & & & & & , , & & , , > > ) ) * * * * = = = = - - - - ; ; ; ; ",
"! ! ! ! ~ ~ ~ ~ { ] ] ] ^ ^ ^ ^ # # > > / / / / / / / / / / / / / / / / / / / / / / / / > > ) ) = = = = ~ ~ ~ ~ ( ( ( ( _ _ _ _ ",
"! ! ! ! ~ ~ ~ ~ { ] ] ] ^ ^ ^ ^ # # > > / / / / / / / / / / / / / / / / / / / / / / / / > > ) ) = = = = ~ ~ ~ ~ ( ( ( ( _ _ _ _ ",
"! ! ! ! ~ ~ ~ ~ { ] ] ] ^ ^ ^ ^ : : < < / / [ [ } } } } | | | | 1 1 1 1 2 2 2 2 3 3 / / ' ' 4 4 = = = = ~ ~ ~ ~ ( ( ( ( _ _ _ _ ",
"! ! ! ! ~ ~ ~ ~ { ] ] ] ^ ^ ^ ^ : : < < / / [ [ } } } } | | | | 1 1 1 1 2 2 2 2 3 3 / / ' ' 4 4 = = = = ~ ~ ~ ~ ( ( ( ( _ _ _ _ ",
"5 5 5 5 6 6 6 6 7 7 7 7 8 8 8 8 9 9 0 0 / / a a b b b b c c c c d d d d e e e e f f / / , , g g h h h h i i i i j j j j k k k k ",
"5 5 5 5 6 6 6 6 7 7 7 7 8 8 8 8 9 9 0 0 / / a a b b b b c c c c d d d d e e e e f f / / , , g g h h h h i i i i j j j j k k k k ",
"5 5 5 5 6 6 6 6 7 7 7 7 8 8 8 8 l l & & / / a a b b b b c c c c d d d d e e e e f f / / & & ) ) h h h h i i i i j j j j k k k k ",
"5 5 5 5 6 6 6 6 7 7 7 7 8 8 8 8 l l & & / / a a b b b b c c c c d d d d e e e e f f / / & & ) ) h h h h i i i i j j j j k k k k ",
"m m m m n n n n o o o o p p p p # # > > / / q q r r r r s s s s t t t t u u u u v v / / > > g g w w w w x x x x y y y y + + + + ",
"m m m m n n n n o o o o p p p p # # > > / / q q r r r r s s s s t t t t u u u u v v / / > > g g w w w w x x x x y y y y + + + + ",
"m m m m n n n n o o o o p p p p z z ' ' / / q q r r r r s s s s t t t t u u u u v v / / ' ' 4 4 w w w w x x x x y y y y + + + + ",
"m m m m n n n n o o o o p p p p z z ' ' / / q q r r r r s s s s t t t t u u u u v v / / ' ' 4 4 w w w w x x x x y y y y + + + + ",
"A A A A B B B B C C C C D D D D # # > > / / E E F F F F G G G G H H H H I I I I J J / / > > ) ) K K K K L L L L M M M M N N N N ",
"A A A A B B B B C C C C D D D D # # > > / / E E F F F F G G G G H H H H I I I I J J / / > > ) ) K K K K L L L L M M M M N N N N ",
"A A A A B B B B C C C C D D D D $ $ & & / / E E F F F F G G G G H H H H I I I I J J / / & & ) ) K K K K L L L L M M M M N N N N ",
"A A A A B B B B C C C C D D D D $ $ & & / / E E F F F F G G G G H H H H I I I I J J / / & & ) ) K K K K L L L L M M M M N N N N ",
"O O O O P P P P Q Q Q Q R R R R # # , , / / S S T T T T U U U U V V V V W W W W X X / / , , ) ) + + + + Y Y Y Y Z Z Z Z ` ` ` ` ",
"O O O O P P P P Q Q Q Q R R R R # # , , / / S S T T T T U U U U V V V V W W W W X X / / , , ) ) + + + + Y Y Y Y Z Z Z Z ` ` ` ` ",
"O O O O P P P P Q Q Q Q R R R R z z < < / / / / / / / / / / / / / / / / / / / / / / / / < < 4 4 + + + + Y Y Y Y Z Z Z Z ` ` ` ` ",
"O O O O P P P P Q Q Q Q R R R R z z < < / / / / / / / / / / / / / / / / / / / / / / / / < < 4 4 + + + + Y Y Y Y Z Z Z Z ` ` ` ` ",
" . . . .........+.+.+.+.h h h h # # > > > > @.@.@.@.#.#.@.@.#.#.& & #.#.#.#.#.#.$.$.%.%.> > g g &.&.&.&.F F F F y y y y *.*.*.*.",
" . . . .........+.+.+.+.h h h h # # > > > > @.@.@.@.#.#.@.@.#.#.& & #.#.#.#.#.#.$.$.%.%.> > g g &.&.&.&.F F F F y y y y *.*.*.*.",
" . . . .........+.+.+.+.h h h h % % & & =.=.-.-.-.-.-.-.-.-.& & -.-.;.;.;.;.0 0 0 0 & & & & >.>.&.&.&.&.F F F F y y y y *.*.*.*.",
" . . . .........+.+.+.+.h h h h % % & & =.=.-.-.-.-.-.-.-.-.& & -.-.;.;.;.;.0 0 0 0 & & & & >.>.&.&.&.&.F F F F y y y y *.*.*.*.",
",.,.,.,.'.'.'.'.).!.!.!.~.~.~.~.# # > > 0 0 & & & & > > > > #.#.-.-.> > & & {.{.].].^.^.g g g g /./././.(.(.(.(._._._._.:.:.:.:.",
",.,.,.,.'.'.'.'.).!.!.!.~.~.~.~.# # > > 0 0 & & & & > > > > #.#.-.-.> > & & {.{.].].^.^.g g g g /./././.(.(.(.(._._._._.:.:.:.:.",
",.,.,.,.'.'.'.'.).!.!.!.~.~.~.~.9 9 ' ' =.=.<.<.< < < < <.<.[.[.=.=.' ' ' ' ^.^.}.}.[.[.}.}.4 4 /./././.(.(.(.(._._._._.:.:.:.:.",
",.,.,.,.'.'.'.'.).!.!.!.~.~.~.~.9 9 ' ' =.=.<.<.< < < < <.<.[.[.=.=.' ' ' ' ^.^.}.}.[.[.}.}.4 4 /./././.(.(.(.(._._._._.:.:.:.:.",
"|.|.|.|.1.1.1.1.2.2.2.2.3.3.3.3.l l & & 0 0 & & & & > > > > $.$.0 0 > > > > > > > > @.@.> > ) ) 4.4.4.4.5.5.5.5.6.6.6.6.7.7.7.7.",
"|.|.|.|.1.1.1.1.2.2.2.2.3.3.3.3.l l & & 0 0 & & & & > > > > $.$.0 0 > > > > > > > > @.@.> > ) ) 4.4.4.4.5.5.5.5.6.6.6.6.7.7.7.7.",
"|.|.|.|.1.1.1.1.2.2.2.2.3.3.3.3.# # > > , , %.%.$.$.$.$.#.#.#.#.& & #.#.#.#.$.$.#.#.$.$.> > ) ) 4.4.4.4.5.5.5.5.6.6.6.6.7.7.7.7.",
"|.|.|.|.1.1.1.1.2.2.2.2.3.3.3.3.# # > > , , %.%.$.$.$.$.#.#.#.#.& & #.#.#.#.$.$.#.#.$.$.> > ) ) 4.4.4.4.5.5.5.5.6.6.6.6.7.7.7.7.",
"8.8.8.8.9.9.9.9.!.!.!.!.0.0.0.0.# # > > & & & & & & & & , , , , > > > > > > , , ' ' > > > > ) ) a.a.a.a.b.b.b.b.c.c.c.c.G G G G ",
"8.8.8.8.9.9.9.9.!.!.!.!.0.0.0.0.# # > > & & & & & & & & , , , , > > > > > > , , ' ' > > > > ) ) a.a.a.a.b.b.b.b.c.c.c.c.G G G G ",
"8.8.8.8.9.9.9.9.!.!.!.!.0.0.0.0.: : < < d.d.=.=.=.=.=.=.=.=.' ' =.=.=.=.d.d.d.d.d.d.< < ' ' 4 4 a.a.a.a.b.b.b.b.c.c.c.c.G G G G ",
"8.8.8.8.9.9.9.9.!.!.!.!.0.0.0.0.: : < < d.d.=.=.=.=.=.=.=.=.' ' =.=.=.=.d.d.d.d.d.d.< < ' ' 4 4 a.a.a.a.b.b.b.b.c.c.c.c.G G G G ",
"e.e.e.e.6.6.6.6.f.f.f.f.g.g.g.g.# # & & 0 0 & & & & > > > > #.#.-.-.& & & & ' ' , , $.$., , g g h.h.h.h.i.i.i.i.j j j j j.j.j.j.",
"e.e.e.e.6.6.6.6.f.f.f.f.g.g.g.g.# # & & 0 0 & & & & > > > > #.#.-.-.& & & & ' ' , , $.$., , g g h.h.h.h.i.i.i.i.j j j j j.j.j.j.",
"e.e.e.e.6.6.6.6.f.f.f.f.g.g.g.g.$ $ & & =.=., , , , , , > > #.#.;.;., , , , , , & & #.#.& & ) ) h.h.h.h.i.i.i.i.j j j j j.j.j.j.",
"e.e.e.e.6.6.6.6.f.f.f.f.g.g.g.g.$ $ & & =.=., , , , , , > > #.#.;.;., , , , , , & & #.#.& & ) ) h.h.h.h.i.i.i.i.j j j j j.j.j.j.",
"k.k.k.k.l.l.l.l.m.m.m.m.n.n.n.n.# # > > -.-., , > > > > > > #.#.0 0 & & ' ' > > > > @.@.> > g g o.o.o.o.f.f.f.f.T T T T p.p.p.p.",
"k.k.k.k.l.l.l.l.m.m.m.m.n.n.n.n.# # > > -.-., , > > > > > > #.#.0 0 & & ' ' > > > > @.@.> > g g o.o.o.o.f.f.f.f.T T T T p.p.p.p.",
"k.k.k.k.l.l.l.l.m.m.m.m.n.n.n.n.z z ' ' < < [.[.[.[.[.[.[.[.%.%.' ' %.%.[.[.[.[.[.[.[.[.' ' 4 4 o.o.o.o.f.f.f.f.T T T T p.p.p.p.",
"k.k.k.k.l.l.l.l.m.m.m.m.n.n.n.n.z z ' ' < < [.[.[.[.[.[.[.[.%.%.' ' %.%.[.[.[.[.[.[.[.[.' ' 4 4 o.o.o.o.f.f.f.f.T T T T p.p.p.p.",
"q.q.q.q.3.3.3.3.r.r.r.r.s.s.s.s.# # > > > > > > > > ' ' & & > > > > , , , , , , > > > > > > ) ) t.t.t.t.K K K K ; ; ; ; u.u.u.u.",
"q.q.q.q.3.3.3.3.r.r.r.r.s.s.s.s.# # > > > > > > > > ' ' & & > > > > , , , , , , > > > > > > ) ) t.t.t.t.K K K K ; ; ; ; u.u.u.u.",
"q.q.q.q.3.3.3.3.r.r.r.r.s.s.s.s.$ $ & & 0 0 0 0 0 0 -.-.;.;., , 0 0 0 0 0 0 =.=.-.-.& & & & ) ) t.t.t.t.K K K K ; ; ; ; u.u.u.u.",
"q.q.q.q.3.3.3.3.r.r.r.r.s.s.s.s.$ $ & & 0 0 0 0 0 0 -.-.;.;., , 0 0 0 0 0 0 =.=.-.-.& & & & ) ) t.t.t.t.K K K K ; ; ; ; u.u.u.u.",
"v.v.v.v.y y y y w.      x.x.x.x.9 9 , , ;.;., , > > > > & & #.#.0 0 & & , , , , , , $.$., , ) ) y.y.y.y.z.z.z.z.A.A.A.A.h.h.h.h.",
"v.v.v.v.y y y y w.      x.x.x.x.9 9 , , ;.;., , > > > > & & #.#.0 0 & & , , , , , , $.$., , ) ) y.y.y.y.z.z.z.z.A.A.A.A.h.h.h.h.",
"v.v.v.v.y y y y w.      x.x.x.x.l l < < =.=.' ' < < < < < < %.%.=.=.' ' ' ' ' ' < < [.[.< < 4 4 y.y.y.y.z.z.z.z.A.A.A.A.h.h.h.h.",
"v.v.v.v.y y y y w.      x.x.x.x.l l < < =.=.' ' < < < < < < %.%.=.=.' ' ' ' ' ' < < [.[.< < 4 4 y.y.y.y.z.z.z.z.A.A.A.A.h.h.h.h.",
"B.B.B.B.C.C.C.C.D.E.E.E.F.F.F.F.# # > > -.-.> > > > & & > > #.#.0 0 & & & & & & , , %.%.> > g g G.G.G.G.i i i i H.H.H.H.E.E.E.E.",
"B.B.B.B.C.C.C.C.D.E.E.E.F.F.F.F.# # > > -.-.> > > > & & > > #.#.0 0 & & & & & & , , %.%.> > g g G.G.G.G.i i i i H.H.H.H.E.E.E.E.",
"B.B.B.B.C.C.C.C.D.E.E.E.F.F.F.F.% % & & ' ' @.@.@.@.@.@.@.@.#.#.> > $.$.$.$.#.#.#.#.#.#.& & >.>.G.G.G.G.i i i i H.H.H.H.E.E.E.E.",
"B.B.B.B.C.C.C.C.D.E.E.E.F.F.F.F.% % & & ' ' @.@.@.@.@.@.@.@.#.#.> > $.$.$.$.#.#.#.#.#.#.& & >.>.G.G.G.G.i i i i H.H.H.H.E.E.E.E.",
"I.I.I.I.........J.J.J.J.K.K.K.K.# # > > & & & & & & > > > > & & > > > > & & , , > > > > > > g g L.L.L.L.0.0.0.0.M.M.M.M.N.N.N.N.",
"I.I.I.I.........J.J.J.J.K.K.K.K.# # > > & & & & & & > > > > & & > > > > & & , , > > > > > > g g L.L.L.L.0.0.0.0.M.M.M.M.N.N.N.N.",
"I.I.I.I.........J.J.J.J.K.K.K.K.' ' 4 4 4 4 O.O.}.}.}.}.O.O.}.}.4 4 4 4 4 4 }.}.P.P.}.}.}.}.4 4 L.L.L.L.0.0.0.0.M.M.M.M.N.N.N.N.",
"I.I.I.I.........J.J.J.J.K.K.K.K.' ' 4 4 4 4 O.O.}.}.}.}.O.O.}.}.4 4 4 4 4 4 }.}.P.P.}.}.}.}.4 4 L.L.L.L.0.0.0.0.M.M.M.M.N.N.N.N."};
