/* XPM */
static char *_2a5df212c5e4a71a6c638d9d566b9fcjwrWDOsuTnY6XHDB[] = {
/* columns rows colors chars-per-pixel */
"64 64 64 1 ",
"  c #509026",
". c #57972E",
"X c #58972F",
"o c #58992D",
"O c #5B9F2F",
"+ c #599432",
"@ c #599334",
"# c #5B9535",
"$ c #5D9637",
"% c #5A9932",
"& c #5C9E31",
"* c #5C9C32",
"= c #5D9E33",
"- c #5D9B35",
"; c #5A9138",
": c #5C9438",
"> c #5F963A",
", c #5E9838",
"< c #5F9C38",
"1 c #609F36",
"2 c #60973B",
"3 c #609D39",
"4 c #639E3B",
"5 c #60993C",
"6 c #629B3C",
"7 c #629D3C",
"8 c #649F3E",
"9 c #5DA230",
"0 c #5EA331",
"q c #5EA430",
"w c #5FA035",
"e c #60A432",
"r c #61A733",
"t c #60A136",
"y c #63A637",
"u c #61A833",
"i c #63AB33",
"p c #63AD33",
"a c #63A836",
"s c #64AA36",
"d c #65AD35",
"f c #63A23A",
"g c #63A438",
"h c #64A638",
"j c #65A43B",
"k c #64A03C",
"l c #65A13E",
"z c #66A53D",
"x c #68A63E",
"c c #65A938",
"v c #67AC39",
"b c #67A83D",
"n c #68AB3B",
"m c #68AD3B",
"M c #68AA3D",
"N c #6AAD3D",
"B c #67A241",
"V c #68A640",
"C c #6BA942",
"Z c #6CAB43",
"A c #6BAC40",
"S c #6CAC42",
"D c #6DAD43",
"F c #73B349",
/* pixels */
"####tttt---,>>>>&&&&zzzz3333ccccssssNNNNCCCCzzzbMMMCffff    SSSS",
"####tttt---->>>>&&&&zzzz3333ccccssssNNNNCCCCzzzbMMMMfftf    SSSS",
"####tttt---->>>>&&&&zzzz3333ccccssssNNNNCCCCzzzzMMMMtttt    SSSS",
"####tttt---->>>>&&&&zzzz3333ccccssssNNNNMCCCzzzzMMMMtttt    SSSS",
"bbbbSSSSssss++++3333----,,,,NNNN---->>>>3333FFFFttttSSSSzzzzCCCC",
"bbbbSSSSssss++++3333----,,,,NNNN$--->>>>3333FFFFttttSSSSbbzzCCCC",
"bbbbSSSSssss++++3333----,,,,NNNN$-$->>>>3333FFFFttttSSSSbbbbCCCC",
"bbbbSSSSssss++++3333----,,,,NNNN$$$->>>>3333FFFFttttSSSSbbbbACCC",
"0000uuuuAAAAffffffffllll&&&&ssssmvvvzzzzlllluuuuzzzzwwww3333MMMM",
"0000uuuuAAAAffffffffllll&&&&ssssmmvvzzzzlllluuuuzzzzwwww3333MMMM",
"0000uuuuAAAAffffffffllll&&&&ssssmmmmzzzz77lluuuuzzzzwwww3333MMMM",
"0000uuuuAAAAffffffffllll&&&&ssssmmmmzzzz33lluuuuzzzzwwww3333MMMM",
"%%%%----yyyyyyytdddd----qqqqllll3338CCCCttttjjjj7777+++X0000--,,",
"%%%%----yyyyyyyydddd----qqqqllll3333CCCCttttjjjj7777++++0000--,,",
"%%%%----yyyyyyyydddd----qqqqllll3333CCCCttttjjjj7777++++0000----",
"%%%%----yyyyyyyydddd----qqqqllll3333CCCCttttjjjj7777++++0000----",
"oooorrrr7777gggg>>>>uuuuyyrr0000&&&=++++&&&&cccbOOOO&&&&yyyy3333",
"oooorrrr7777gggg>>>>uuppyyry0000&&&&#+++&&&&ccbbOOOO&&&&yyyy3333",
"oooorrrr7777gggg$>>>uuuuyyyy0000&&&&++++&&&&ccccOOOO&&&&yyyy3333",
"oooorrrr7777gggg$>>>uuuuyyyy0000&&&&++++&&&&ccccOOOO&&&&yyyy3333",
"ttttppppuuuu----cvvv5555XXXX3333&&&&uuuu----jjjj----mmmm5555SSSS",
"ttttppppuuuu----vvvv5555XXXX3333&&&&uuuu----jjjj----mmmm5555SSSS",
"ttttppppuuuu----vvvv5555XXXX3333&&&&uuuu----jjjj----mmmm>,55SSSS",
"ttttppppuuuu----vvvv5555XXXX3333&&&&uuuu----jjjj----mmmm2,55SSSS",
";;;;nnnnzzzVzzzzdddd$$$$OOOOzzzzllll7777>>>>3333dduuyyyy0000----",
";;;;nnnnzzzzzzzzdddd$$$$OOOOzzzzllll7777>>>>3333dduuyyyy0000----",
";;;;nnnnzzzzzzzzdddd$$$$OOOOzzzzllll7777>>>>3333ddduruyy0000----",
";;;;nnnnzzzzzzzzvddd$$$$OOOOzzzzllll7777>>>>3333dduuruyy0000----",
"----yyyy$$$$yyyy3333llllrrrrcccc8888llllzzzz55550000++++xxxxNNNN",
"----yyyy$$$$yyyy3333llllrrrrcccc8888llllzzzz55550000++++xxxxNNNN",
"----yyyy>>>,yyyy3333llllrrrrbbcc8888llllzzzz55550000%%++xxxxNNNN",
",,--tyyy>>>>yyyy3333llllrrrrMccc8888llllzzzz55550000%+++xxxxNNNN",
">>>>5555&&&=llll>>>$--$$llll....>>>>vvvv++++MMMMauaattrrllll----",
">>>>5555&&&&llll>>>>----llll....>>>>vvvv++++MMMMuaaattrrllll----",
">>>>5555&&&&llll>>>>----llll....@@>>vvvv++++MMMMauaattrrll88&&&&",
">>>>5555&&&&llll>>>>----llll....@>>>vvvv++++CMMMuuuatrrrllll&&&&",
"--,,++XX>>>>%%%%uuuu3333qqqq<<<<,,55ttttssssyyyyttttrrrr$$$$0000",
"----++XX>>>>%%%%uuuu3333qqqq<<<<,,55ttttssssyyyyttttrrrr$$$$0000",
"----+XXX>>>>%%%%uuuu3333qqqq<<<<,555ttttssssyyyyttttrrrr$$$$0000",
"----++XX$$>>%%%%uuuu3333qqqq<<<<,555ttttssssyyyyttttrrrr$$$$0000",
"BBBBllllZZZZMMMMdddd0000ssss7777%%%%MMMMCCCA&&&&&&&&llll33333333",
"BBBBllllZZZZMMMMdddd0000ssss7777%%%%MMMMCCCC&&&&&&&&llll33333333",
"BBBBllllZZZZMMMMdddd0000ssss7777%%%%MMMMCCCC&&&&&&&&llll33333333",
"BBBBllllZZZZMMMMdddd0000ssss7777%%%%MMMMCCCC=&&&&&&&llll33333333",
"llll@@@@&&&&....llll&&&&0000aaaa++++CCCC&&&&ssss%%%%ZZZZXXXX%%%%",
"llll@@@@&&&&....llll&&&&0000aaaa++++CCCC&&&&ssss%%%%ZZZZXXXX%%%%",
"llll@@@@&&&&....llll&&&&0000aaaa%%++CCCC&&&&aass%%%%ZZZZXXXX%%%%",
"jlll@@@@&&&&....llll&&&&0000aaaa%+++CCCC1=&&aaaa%%%%ZZZZXXXX%%%%",
"##@@llllcccNNNNN....llll2222uuuuddddqqqqvvvvVVVV0000OOOOSSSSMMCC",
"##@@llllccbbNNNN....llll2222uuuuddddqqqqvvvvVVVV0000OOOOSSSSMMCC",
"##@@llllccccNNNN....llll2222uuuuddddqqqqvvvvVVVV0000OOOOSSSSMMMC",
"##@@llllccccNNNN....llll222>uuuuddddqqqqvvvvVVVV0000OOOOSSSSMMMC",
"33330000####%%%%5,,,OOOOyyyyrrryssssttttuuuu....0000llll$$$>&&&&",
"73330000####%%%%5,,,OOOOyyyyrrryssssttttuuuu....0000llll--$$&&&&",
"77330000####%%%%,,,,ooOOyyyyrryyssssttttuuuu....0000llll----&&&&",
"77330000####%%%%,,,,ooooyyyy0ryyssssttttuuuu....0000llll----&&&&",
"####gggg>,,,CCCCffff,,,,++++3333....33335555wwww3333wwwwwwww>>>>",
"##++gggg>,,,CCCCffff,,,,++++3333....333355,,wwww3333wwwwwwww>>>>",
"++++gggg>>,,CCCCffff,,,,++++3333....3333,,,,wwww5333wwwwwwww>>>>",
"++++gggg>>,,CCCCffff,,,,++++3335....3333,,,,wwwt5333wwwwwwww>>>>",
"yyyynnnnryrr$$$$00&&jjcczzzz--$$>>>>rrrrmmNN&&11vvvv%%%%5577ffff",
"yyyynnnnyyrr$$$$0000jjcczzzz--$$>>>>rrrrNNNN&&11vvvv%%%%5555ffff",
"yayynnnnyrrr$$$$0000jjjczxzz-$$$>>>>rrqrNNNN&111vvvv%%%%5555ffff",
"yayynnnnyrrr$$$$0000jjcczzzx$$$$>>>>rrrrNNNN&111vvvv%%%%5555ffff"
};
