/* XPM */
static char * item_xpm[] = {
"64 64 139 2",
"  	c #5B9535",
". 	c #60A136",
"+ 	c #5E9937",
"@ 	c #5E973A",
"# 	c #5C9E31",
"$ 	c #66A53D",
"% 	c #619E38",
"& 	c #65A938",
"* 	c #64A936",
"= 	c #6AAE3D",
"- 	c #6AAA40",
"; 	c #67A73D",
"> 	c #69A93F",
", 	c #61A137",
"' 	c #509026",
") 	c #6DAD43",
"! 	c #67A83D",
"~ 	c #6CAC42",
"{ 	c #64AA35",
"] 	c #64AA36",
"^ 	c #599432",
"/ 	c #609D39",
"( 	c #5D9B34",
"_ 	c #5E9838",
": 	c #6AAD3D",
"< 	c #5E9837",
"[ 	c #5D9439",
"} 	c #629E3A",
"| 	c #73B349",
"1 	c #6BAB41",
"2 	c #5D9539",
"3 	c #5EA331",
"4 	c #61A833",
"5 	c #6BAC40",
"6 	c #63A33A",
"7 	c #62A03A",
"8 	c #65A33D",
"9 	c #0C3730",
"0 	c #639F3C",
"a 	c #62AA33",
"b 	c #5FA035",
"c 	c #609C38",
"d 	c #68AA3D",
"e 	c #5A9932",
"f 	c #5D9B35",
"g 	c #63A637",
"h 	c #61A436",
"i 	c #65AD35",
"j 	c #FFFFFF",
"k 	c #64A638",
"l 	c #639E3C",
"m 	c #589530",
"n 	c #5EA132",
"o 	c #58992D",
"p 	c #60A533",
"q 	c #629D3C",
"r 	c #63A438",
"s 	c #A1F6E7",
"t 	c #D0FAF3",
"u 	c #30DBBD",
"v 	c #5A9D2E",
"w 	c #5D9D33",
"x 	c #62A735",
"y 	c #619C39",
"z 	c #A2F6E7",
"A 	c #D1FAF3",
"B 	c #60A236",
"C 	c #63AD33",
"D 	c #61A832",
"E 	c #4AEDD1",
"F 	c #68AD3B",
"G 	c #60983B",
"H 	c #6CAD42",
"I 	c #5A9138",
"J 	c #68AB3B",
"K 	c #67A63F",
"L 	c #61A634",
"M 	c #5D9936",
"N 	c #5E9A37",
"O 	c #62A437",
"P 	c #8CF4E2",
"Q 	c #209581",
"R 	c #599731",
"S 	c #68A63E",
"T 	c #6AAD3E",
"U 	c #5D953A",
"V 	c #629B3C",
"W 	c #65A03E",
"X 	c #5D9C34",
"Y 	c #5D9937",
"Z 	c #58962F",
"` 	c #2CCDB1",
" .	c #1B7B6B",
"..	c #5D9637",
"+.	c #5DA230",
"@.	c #67A241",
"#.	c #48EDD0",
"$.	c #619E39",
"%.	c #64A33C",
"&.	c #599334",
"*.	c #5D9E32",
"=.	c #6CAB43",
"-.	c #58972F",
";.	c #5A9931",
">.	c #5A9335",
",.	c #64A03D",
"'.	c #67AB3B",
").	c #6AAB3F",
"!.	c #629F3B",
"~.	c #5B9435",
"{.	c #5A9831",
"].	c #5EA231",
"^.	c #65A13D",
"/.	c #5D9837",
"(.	c #5C9D31",
"_.	c #2ECCB0",
":.	c #5A9533",
"<.	c #63A638",
"[.	c #5F963A",
"}.	c #5F973A",
"|.	c #6BA942",
"1.	c #63A23A",
"2.	c #619C3B",
"3.	c #5FA034",
"4.	c #63A737",
"5.	c #61A733",
"6.	c #5D9737",
"7.	c #5DA030",
"8.	c #65A839",
"9.	c #67A43E",
"0.	c #5D9836",
"a.	c #5E9639",
"b.	c #60A532",
"c.	c #68AC3C",
"d.	c #609F36",
"e.	c #67AD39",
"f.	c #5B9A32",
"g.	c #619B3C",
"h.	c #63A239",
"        . . . . + + + + @ @ @ @ # # # # $ $ $ $ % % % % & & & & * * * * = = = = - - - - ; ; ; ; > > > > , , , , ' ' ' ' ) ) ) ) ",
"        . . . . + + + + @ @ @ @ # # # # $ $ $ $ % % % % & & & & * * * * = = = = - - - - ; ; ; ; > > > > , , , , ' ' ' ' ) ) ) ) ",
"        . . . . + + + + @ @ @ @ # # # # $ $ $ $ % % % % & & & & * * * * = = = = - - - - ; ; ; ; > > > > , , , , ' ' ' ' ) ) ) ) ",
"        . . . . + + + + @ @ @ @ # # # # $ $ $ $ % % % % & & & & * * * * = = = = - - - - ; ; ; ; > > > > , , , , ' ' ' ' ) ) ) ) ",
"! ! ! ! ~ ~ ~ ~ { ] ] ] ^ ^ ^ ^ / / / / ( ( ( ( _ _ _ _ : : : : < < < < [ [ [ [ } } } } | | | | , , , , ~ ~ ~ ~ ; ; ; ; 1 1 1 1 ",
"! ! ! ! ~ ~ ~ ~ { ] ] ] ^ ^ ^ ^ / / / / ( ( ( ( _ _ _ _ : : : : < < < < 2 2 2 2 } } } } | | | | , , , , ~ ~ ~ ~ ; ; ; ; 1 1 1 1 ",
"! ! ! ! ~ ~ ~ ~ { ] ] ] ^ ^ ^ ^ / / / / ( ( ( ( _ _ _ _ : : : : < < < < 2 2 2 2 } } } } | | | | , , , , ~ ~ ~ ~ ; ; ; ; 1 1 1 1 ",
"! ! ! ! ~ ~ ~ ~ { ] ] ] ^ ^ ^ ^ / / / / ( ( ( ( _ _ _ _ : : : : < < < < 2 2 2 2 } } } } | | | | , , , , ~ ~ ~ ~ ; ; ; ; 1 1 1 1 ",
"3 3 3 3 4 4 4 4 5 5 5 5 6 6 6 6 7 7 7 7 8 8 8 8 9 9 9 9 9 9 9 9 9 9 9 9 9 9 9 9 0 0 0 0 a a a a $ $ $ $ b b b b c c c c d d d d ",
"3 3 3 3 4 4 4 4 5 5 5 5 6 6 6 6 7 7 7 7 8 8 8 8 9 9 9 9 9 9 9 9 9 9 9 9 9 9 9 9 0 0 0 0 a a a a $ $ $ $ b b b b c c c c d d d d ",
"3 3 3 3 4 4 4 4 5 5 5 5 6 6 6 6 7 7 7 7 8 8 8 8 9 9 9 9 9 9 9 9 9 9 9 9 9 9 9 9 0 0 0 0 a a a a $ $ $ $ b b b b c c c c d d d d ",
"3 3 3 3 4 4 4 4 5 5 5 5 6 6 6 6 7 7 7 7 8 8 8 8 9 9 9 9 9 9 9 9 9 9 9 9 9 9 9 9 0 0 0 0 a a a a $ $ $ $ b b b b c c c c d d d d ",
"e e e e f f f f g g g g h h h h i i i i 9 9 9 9 j j j j j j j j j j j j j j j j 9 9 9 9 k k k k l l l l m m m m n n n n + + + + ",
"e e e e f f f f g g g g h h h h i i i i 9 9 9 9 j j j j j j j j j j j j j j j j 9 9 9 9 k k k k l l l l m m m m n n n n + + + + ",
"e e e e f f f f g g g g h h h h i i i i 9 9 9 9 j j j j j j j j j j j j j j j j 9 9 9 9 k k k k l l l l m m m m n n n n + + + + ",
"e e e e f f f f g g g g h h h h i i i i 9 9 9 9 j j j j j j j j j j j j j j j j 9 9 9 9 k k k k l l l l m m m m n n n n + + + + ",
"o o o o p p p p q q q q r r r r 9 9 9 9 j j j j s s s s s s s s s s s s t t t t u u u u 9 9 9 9 v v v v w w w w x x x x y y y y ",
"o o o o p p p p q q q q r r r r 9 9 9 9 j j j j z z z z z z z z z z z z A A A A u u u u 9 9 9 9 v v v v w w w w x x x x y y y y ",
"o o o o p p p p q q q q r r r r 9 9 9 9 j j j j z z z z z z z z z z z z A A A A u u u u 9 9 9 9 v v v v w w w w x x x x y y y y ",
"o o o o p p p p q q q q r r r r 9 9 9 9 j j j j z z z z z z z z z z z z A A A A u u u u 9 9 9 9 v v v v w w w w x x x x y y y y ",
"B B B B C C C C D D D D 9 9 9 9 j j j j A A A A z z z z z z z z j j j j E E E E E E E E 9 9 9 9 + + + + F F F F G G G G H H H H ",
"B B B B C C C C D D D D 9 9 9 9 j j j j A A A A z z z z z z z z j j j j E E E E E E E E 9 9 9 9 + + + + F F F F G G G G H H H H ",
"B B B B C C C C D D D D 9 9 9 9 j j j j A A A A z z z z z z z z j j j j E E E E E E E E 9 9 9 9 + + + + F F F F G G G G H H H H ",
"B B B B C C C C D D D D 9 9 9 9 j j j j A A A A z z z z z z z z j j j j E E E E E E E E 9 9 9 9 + + + + F F F F G G G G H H H H ",
"I I I I J J J J K K K K 9 9 9 9 j j j j z z z z j j j j A A A A A A A A A A A A E E E E u u u u 9 9 9 9 L L L L n n n n M M M M ",
"I I I I J J J J K K K K 9 9 9 9 j j j j z z z z j j j j A A A A A A A A A A A A E E E E u u u u 9 9 9 9 L L L L n n n n M M M M ",
"I I I I J J J J K K K K 9 9 9 9 j j j j z z z z j j j j A A A A A A A A A A A A E E E E u u u u 9 9 9 9 L L L L n n n n M M M M ",
"I I I I J J J J K K K K 9 9 9 9 j j j j z z z z j j j j A A A A A A A A A A A A E E E E u u u u 9 9 9 9 L L L L n n n n M M M M ",
"N N N N O O O O 9 9 9 9 j j j j s z z z j j j j P P P P P P P P P P P P P P P P Q Q Q Q E E E E 9 9 9 9 R R R R S S S S T T T T ",
"N N N N O O O O 9 9 9 9 j j j j s z z z j j j j P P P P P P P P P P P P P P P P Q Q Q Q E E E E 9 9 9 9 R R R R S S S S T T T T ",
"N N N N O O O O 9 9 9 9 j j j j s z z z j j j j P P P P P P P P P P P P P P P P Q Q Q Q E E E E 9 9 9 9 R R R R S S S S T T T T ",
"N N N N O O O O 9 9 9 9 j j j j s z z z j j j j P P P P P P P P P P P P P P P P Q Q Q Q E E E E 9 9 9 9 R R R R S S S S T T T T ",
"U U U U V V V V 9 9 9 9 j j j j s z z z A A A A P P P P P P P P P P P P P P P P Q Q Q Q E E E E u u u u 9 9 9 9 W W W W X X X X ",
"U U U U V V V V 9 9 9 9 j j j j s z z z A A A A P P P P P P P P P P P P P P P P Q Q Q Q E E E E u u u u 9 9 9 9 W W W W X X X X ",
"U U U U V V V V 9 9 9 9 j j j j s z z z A A A A P P P P P P P P P P P P P P P P Q Q Q Q E E E E u u u u 9 9 9 9 W W W W X X X X ",
"U U U U V V V V 9 9 9 9 j j j j s z z z A A A A P P P P P P P P P P P P P P P P Q Q Q Q E E E E u u u u 9 9 9 9 W W W W X X X X ",
"Y Y Y Y Z Z Z Z 9 9 9 9 j j j j t A A A ` ` ` ` P P P P P P P P P P P P P P P P Q Q Q Q  . . . . . . . .9 9 9 9 ........+.+.+.+.",
"Y Y Y Y Z Z Z Z 9 9 9 9 j j j j t A A A ` ` ` ` P P P P P P P P P P P P P P P P Q Q Q Q  . . . . . . . .9 9 9 9 ........+.+.+.+.",
"Y Y Y Y Z Z Z Z 9 9 9 9 j j j j t A A A ` ` ` ` P P P P P P P P P P P P P P P P Q Q Q Q  . . . . . . . .9 9 9 9 ........+.+.+.+.",
"Y Y Y Y Z Z Z Z 9 9 9 9 j j j j t A A A ` ` ` ` P P P P P P P P P P P P P P P P Q Q Q Q  . . . . . . . .9 9 9 9 ........+.+.+.+.",
"@.@.@.@.W W W W 9 9 9 9 j j j j #.E E E E E E E Q Q Q Q Q Q Q Q Q Q Q Q Q Q Q Q ` ` ` ` ` ` ` ` Q Q Q Q 9 9 9 9 c c c c $.$.$.$.",
"@.@.@.@.W W W W 9 9 9 9 j j j j #.E E E E E E E Q Q Q Q Q Q Q Q Q Q Q Q Q Q Q Q ` ` ` ` ` ` ` ` Q Q Q Q 9 9 9 9 c c c c $.$.$.$.",
"@.@.@.@.W W W W 9 9 9 9 j j j j #.E E E E E E E Q Q Q Q Q Q Q Q Q Q Q Q Q Q Q Q ` ` ` ` ` ` ` ` Q Q Q Q 9 9 9 9 c c c c $.$.$.$.",
"@.@.@.@.W W W W 9 9 9 9 j j j j #.E E E E E E E Q Q Q Q Q Q Q Q Q Q Q Q Q Q Q Q ` ` ` ` ` ` ` ` Q Q Q Q 9 9 9 9 c c c c $.$.$.$.",
"%.%.%.%.&.&.&.&.*.*.*.*.9 9 9 9 E E E E  . . . .` ` ` ` ` ` ` ` ` ` ` ` ` ` ` `  . . . .` ` ` ` 9 9 9 9 =.=.=.=.-.-.-.-.;.;.;.;.",
"%.%.%.%.&.&.&.&.*.*.*.*.9 9 9 9 E E E E  . . . .` ` ` ` ` ` ` ` ` ` ` ` ` ` ` `  . . . .` ` ` ` 9 9 9 9 =.=.=.=.-.-.-.-.;.;.;.;.",
"%.%.%.%.&.&.&.&.*.*.*.*.9 9 9 9 E E E E  . . . .` ` ` ` ` ` ` ` ` ` ` ` ` ` ` `  . . . .` ` ` ` 9 9 9 9 =.=.=.=.-.-.-.-.;.;.;.;.",
"%.%.%.%.&.&.&.&.*.*.*.*.9 9 9 9 E E E E  . . . .` ` ` ` ` ` ` ` ` ` ` ` ` ` ` `  . . . .` ` ` ` 9 9 9 9 =.=.=.=.-.-.-.-.;.;.;.;.",
">.>.>.>.,.,.,.,.'.'.'.'.9 9 9 9 u u u u  . . . .` ` ` ` ` ` ` ` ` ` ` ` ` ` ` `  . . . .Q Q Q Q 9 9 9 9 v v v v ) ) ) ) ).).).).",
">.>.>.>.,.,.,.,.'.'.'.'.9 9 9 9 u u u u  . . . .` ` ` ` ` ` ` ` ` ` ` ` ` ` ` `  . . . .Q Q Q Q 9 9 9 9 v v v v ) ) ) ) ).).).).",
">.>.>.>.,.,.,.,.'.'.'.'.9 9 9 9 u u u u  . . . .` ` ` ` ` ` ` ` ` ` ` ` ` ` ` `  . . . .Q Q Q Q 9 9 9 9 v v v v ) ) ) ) ).).).).",
">.>.>.>.,.,.,.,.'.'.'.'.9 9 9 9 u u u u  . . . .` ` ` ` ` ` ` ` ` ` ` ` ` ` ` `  . . . .Q Q Q Q 9 9 9 9 v v v v ) ) ) ) ).).).).",
"!.!.!.!.n n n n ~.      {.{.{.{.9 9 9 9 Q Q Q Q ` ` ` ` ` ` ` ` ` ` ` ` ` ` ` ` Q Q Q Q 9 9 9 9 ].].].].^.^.^.^././././.(.(.(.(.",
"!.!.!.!.n n n n ~.      {.{.{.{.9 9 9 9 Q Q Q Q ` ` ` ` ` ` ` ` ` ` ` ` ` ` ` ` Q Q Q Q 9 9 9 9 ].].].].^.^.^.^././././.(.(.(.(.",
"!.!.!.!.n n n n ~.      {.{.{.{.9 9 9 9 Q Q Q Q ` ` ` ` ` ` ` ` ` ` ` ` ` ` ` _.Q Q Q Q 9 9 9 9 ].].].].^.^.^.^././././.(.(.(.(.",
"!.!.!.!.n n n n ~.      {.{.{.{.9 9 9 9 Q Q Q Q ` ` ` ` ` ` ` ` ` ` ` ` ` ` ` ` Q Q Q Q 9 9 9 9 ].].].].^.^.^.^././././.(.(.(.(.",
":.:.:.:.<.<.<.<.[.}.}.}.|.|.|.|.1.1.1.1.9 9 9 9 9 9 9 9 9 9 9 9 9 9 9 9 9 9 9 9 9 9 9 9 b b b b 2.2.2.2.b b b b 3.3.3.3.}.}.}.}.",
":.:.:.:.<.<.<.<.[.}.}.}.|.|.|.|.1.1.1.1.9 9 9 9 9 9 9 9 9 9 9 9 9 9 9 9 9 9 9 9 9 9 9 9 b b b b 2.2.2.2.b b b b 3.3.3.3.}.}.}.}.",
":.:.:.:.<.<.<.<.[.}.}.}.|.|.|.|.1.1.1.1.9 9 9 9 9 9 9 9 9 9 9 9 9 9 9 9 9 9 9 9 9 9 9 9 b b b b 2.2.2.2.b b b b 3.3.3.3.}.}.}.}.",
":.:.:.:.<.<.<.<.[.}.}.}.|.|.|.|.1.1.1.1.9 9 9 9 9 9 9 9 9 9 9 9 9 9 9 9 9 9 9 9 9 9 9 9 b b b b 2.2.2.2.b b b b 3.3.3.3.}.}.}.}.",
"4.4.4.4.J J J J 5.5.5.5.6.6.6.6.7.7.7.7.8.8.8.8.9.9.9.9.0.0.0.0.a.a.a.a.b.b.b.b.c.c.c.c.d.d.d.d.e.e.e.e.f.f.f.f.g.g.g.g.h.h.h.h.",
"4.4.4.4.J J J J 5.5.5.5.6.6.6.6.7.7.7.7.8.8.8.8.9.9.9.9.0.0.0.0.a.a.a.a.b.b.b.b.c.c.c.c.d.d.d.d.e.e.e.e.f.f.f.f.g.g.g.g.h.h.h.h.",
"4.4.4.4.J J J J 5.5.5.5.6.6.6.6.7.7.7.7.8.8.8.8.9.9.9.9.0.0.0.0.a.a.a.a.b.b.b.b.c.c.c.c.d.d.d.d.e.e.e.e.f.f.f.f.g.g.g.g.h.h.h.h.",
"4.4.4.4.J J J J 5.5.5.5.6.6.6.6.7.7.7.7.8.8.8.8.9.9.9.9.0.0.0.0.a.a.a.a.b.b.b.b.c.c.c.c.d.d.d.d.e.e.e.e.f.f.f.f.g.g.g.g.h.h.h.h."};
