/* XPM */
static char * player_xpm[] = {
"64 64 373 2",
"  	c #5B9535",
". 	c #60A136",
"+ 	c #5E9937",
"@ 	c #5E973A",
"# 	c #2F200D",
"$ 	c #2B1E0D",
"% 	c #2F1F0F",
"& 	c #281C0B",
"* 	c #221706",
"= 	c #241808",
"- 	c #261A0A",
"; 	c #291C0B",
"> 	c #2A1D0D",
", 	c #291C0C",
"' 	c #69A93F",
") 	c #61A137",
"! 	c #509026",
"~ 	c #6DAD43",
"{ 	c #322310",
"] 	c #332411",
"^ 	c #412911",
"/ 	c #422A12",
"( 	c #3F2913",
"_ 	c #3F2A15",
": 	c #33220F",
"< 	c #2C1E0E",
"[ 	c #271B0A",
"} 	c #33210F",
"| 	c #67A83D",
"1 	c #6CAC42",
"2 	c #64AA35",
"3 	c #64AA36",
"4 	c #599432",
"5 	c #271B09",
"6 	c #B6886B",
"7 	c #B4876A",
"8 	c #BB8D71",
"9 	c #BB8C70",
"0 	c #C3947D",
"a 	c #C4947E",
"b 	c #BC8A6E",
"c 	c #BB8970",
"d 	c #BB8B71",
"e 	c #BB8C72",
"f 	c #B07D62",
"g 	c #AA7458",
"h 	c #714E37",
"i 	c #332512",
"j 	c #67A73D",
"k 	c #6BAB41",
"l 	c #271A09",
"m 	c #B7896C",
"n 	c #B6896C",
"o 	c #BD8E72",
"p 	c #C5957E",
"q 	c #C69680",
"r 	c #BD8B70",
"s 	c #BD8B72",
"t 	c #BD8D72",
"u 	c #BD8E74",
"v 	c #B38064",
"w 	c #AC765A",
"x 	c #745038",
"y 	c #342512",
"z 	c #AA7D66",
"A 	c #B4846D",
"B 	c #AC7F6C",
"C 	c #AD806D",
"D 	c #9C705A",
"E 	c #9C725C",
"F 	c #B3836B",
"G 	c #BB8972",
"H 	c #A9755A",
"I 	c #9C694C",
"J 	c #9B694B",
"K 	c #5EA331",
"L 	c #61A833",
"M 	c #6BAC40",
"N 	c #63A33A",
"O 	c #B3826A",
"P 	c #FEFDFD",
"Q 	c #FDFCFC",
"R 	c #FEFDFC",
"S 	c #432584",
"T 	c #513D88",
"U 	c #503C88",
"V 	c #AE7669",
"W 	c #B57B67",
"X 	c #BA8971",
"Y 	c #BA8871",
"Z 	c #6E5283",
"` 	c #C9C4D4",
" .	c #FDFCFB",
"..	c #D5BEB3",
"+.	c #AA7C65",
"@.	c #A97C65",
"#.	c #66A53D",
"$.	c #5FA035",
"%.	c #609C38",
"&.	c #68AA3D",
"*.	c #FFFFFF",
"=.	c #432483",
"-.	c #523D89",
";.	c #AE766A",
">.	c #BB8A71",
",.	c #C9C5D6",
"'.	c #D6C2B7",
").	c #9C6346",
"!.	c #9B6245",
"~.	c #B2775C",
"{.	c #B2775B",
"].	c #B68172",
"^.	c #704536",
"/.	c #693F2F",
"(.	c #673D2D",
"_.	c #683E2E",
":.	c #683E2D",
"<.	c #A6735B",
"[.	c #BD876C",
"}.	c #AE7453",
"|.	c #A06439",
"1.	c #915D39",
"2.	c #805333",
"3.	c #9C6245",
"4.	c #B37B62",
"5.	c #B78272",
"6.	c #724737",
"7.	c #6A4030",
"8.	c #A7745B",
"9.	c #BE886C",
"0.	c #AE7656",
"a.	c #A26A47",
"b.	c #915F3D",
"c.	c #805334",
"d.	c #5A9932",
"e.	c #5D9B35",
"f.	c #63A637",
"g.	c #61A436",
"h.	c #915E43",
"i.	c #996243",
"j.	c #4A2915",
"k.	c #4F2C17",
"l.	c #834939",
"m.	c #874A3B",
"n.	c #884A3B",
"o.	c #623622",
"p.	c #532D18",
"q.	c #7B4E31",
"r.	c #905F3E",
"s.	c #88583A",
"t.	c #815338",
"u.	c #815238",
"v.	c #639E3C",
"w.	c #589530",
"x.	c #5EA132",
"y.	c #905E43",
"z.	c #965F40",
"A.	c #3C1D07",
"B.	c #41210C",
"C.	c #844839",
"D.	c #8A4C3D",
"E.	c #8B4B3C",
"F.	c #582D1A",
"G.	c #45220E",
"H.	c #75492E",
"I.	c #8F5E3E",
"J.	c #88593A",
"K.	c #815339",
"L.	c #6C432A",
"M.	c #694028",
"N.	c #3F200A",
"O.	c #3B1802",
"P.	c #3B1702",
"Q.	c #3D1B05",
"R.	c #3E1C07",
"S.	c #42200B",
"T.	c #6C432B",
"U.	c #82543B",
"V.	c #7E5136",
"W.	c #794E32",
"X.	c #794E33",
"Y.	c #6F452C",
"Z.	c #6D432A",
"`.	c #421D0A",
" +	c #44210D",
".+	c #6D432B",
"++	c #83553B",
"@+	c #7F5236",
"#+	c #7A4E33",
"$+	c #00A2A2",
"%+	c #00A0A0",
"&+	c #00B0B0",
"*+	c #00B1B1",
"=+	c #00B7B7",
"-+	c #00B6B6",
";+	c #00A8A8",
">+	c #238784",
",+	c #228B88",
"'+	c #228B87",
")+	c #228C89",
"!+	c #73472D",
"~+	c #734930",
"{+	c #724830",
"]+	c #8F5A3B",
"^+	c #8E5B3C",
"/+	c #744930",
"(+	c #73482F",
"_+	c #75462D",
":+	c #238C89",
"<+	c #2A8E8A",
"[+	c #298E8A",
"}+	c #288D89",
"|+	c #278D89",
"1+	c #279592",
"2+	c #00A9A9",
"3+	c #009F9F",
"4+	c #009E9E",
"5+	c #00AFAF",
"6+	c #009999",
"7+	c #825136",
"8+	c #805238",
"9+	c #A26947",
"0+	c #825034",
"a+	c #00A7A7",
"b+	c #009D9D",
"c+	c #00ADAD",
"d+	c #00ABAB",
"e+	c #00AEAE",
"f+	c #00A1A1",
"g+	c #00A6A6",
"h+	c #00A5A5",
"i+	c #23918E",
"j+	c #23928F",
"k+	c #1E9390",
"l+	c #87563B",
"m+	c #87573B",
"n+	c #7E533A",
"o+	c #28908C",
"p+	c #23928E",
"q+	c #03AAAA",
"r+	c #805339",
"s+	c #7E543B",
"t+	c #00AAAA",
"u+	c #00ACAC",
"v+	c #129592",
"w+	c #129491",
"x+	c #11908D",
"y+	c #12908D",
"z+	c #03A5A4",
"A+	c #009C9C",
"B+	c #9B826E",
"C+	c #9A816E",
"D+	c #9A816D",
"E+	c #9A816C",
"F+	c #998470",
"G+	c #9A836F",
"H+	c #9A8370",
"I+	c #988471",
"J+	c #99826E",
"K+	c #009A9A",
"L+	c #009B9B",
"M+	c #9E806A",
"N+	c #9A846F",
"O+	c #9A826D",
"P+	c #99816D",
"Q+	c #AB7E66",
"R+	c #AB7D66",
"S+	c #A97D66",
"T+	c #AE7C62",
"U+	c #966F5B",
"V+	c #976F5B",
"W+	c #AF7B62",
"X+	c #97705C",
"Y+	c #956E5A",
"Z+	c #AE7B62",
"`+	c #966F5A",
" @	c #9A6C55",
".@	c #9A6C56",
"+@	c #009898",
"@@	c #946F5A",
"#@	c #937059",
"$@	c #A28060",
"%@	c #A38161",
"&@	c #A67F63",
"*@	c #4635A5",
"=@	c #4634A5",
"-@	c #4633A5",
";@	c #4633A4",
">@	c #3A2787",
",@	c #3A2988",
"'@	c #3B1F87",
")@	c #946E5A",
"!@	c #956F5B",
"~@	c #463AA5",
"{@	c #4539A5",
"]@	c #463AA6",
"^@	c #453AA4",
"/@	c #393088",
"(@	c #3A3189",
"_@	c #3A2A88",
":@	c #A68064",
"<@	c #A87F65",
"[@	c #A97D65",
"}@	c #956E5B",
"|@	c #453AA5",
"1@	c #4639A6",
"2@	c #3A2B88",
"3@	c #3B2387",
"4@	c #996D55",
"5@	c #966E5A",
"6@	c #94725A",
"7@	c #9A6D55",
"8@	c #67A241",
"9@	c #65A03E",
"0@	c #6CAB43",
"a@	c #69AB3E",
"b@	c #453BA5",
"c@	c #453AA6",
"d@	c #443AA4",
"e@	c #443AA3",
"f@	c #42399F",
"g@	c #443CA3",
"h@	c #5C9D31",
"i@	c #66A33E",
"j@	c #619E39",
"k@	c #4439A1",
"l@	c #4639A5",
"m@	c #64A33C",
"n@	c #599334",
"o@	c #5D9E32",
"p@	c #57972E",
"q@	c #5B9833",
"r@	c #58972F",
"s@	c #5A9931",
"t@	c #5A9335",
"u@	c #64A03D",
"v@	c #67AB3B",
"w@	c #6AAC3E",
"x@	c #5EA131",
"y@	c #5A9D2E",
"z@	c #6AAB3F",
"A@	c #393089",
"B@	c #393188",
"C@	c #629F3B",
"D@	c #5B9435",
"E@	c #5A9831",
"F@	c #5EA231",
"G@	c #65A13D",
"H@	c #5D9837",
"I@	c #5A9533",
"J@	c #63A638",
"K@	c #5F963A",
"L@	c #5F973A",
"M@	c #6BA942",
"N@	c #619C3B",
"O@	c #5FA034",
"P@	c #4740A3",
"Q@	c #63A737",
"R@	c #68AB3B",
"S@	c #61A733",
"T@	c #5D9737",
"U@	c #6B6B6A",
"V@	c #6A6A69",
"W@	c #6A6A6A",
"X@	c #686867",
"Y@	c #6B6B6B",
"Z@	c #6A7266",
"`@	c #67AD39",
" #	c #5B9A32",
".#	c #619B3C",
"+#	c #63A239",
"@#	c #686868",
"##	c #6B6E69",
"        . . . . + + + + @ @ @ @ # # # # $ $ $ $ % % % % & & & & * = = = = - - - ; $ $ $ > > > > , ' ' ' ) ) ) ) ! ! ! ! ~ ~ ~ ~ ",
"        . . . . + + + + @ @ @ @ # # # # $ $ $ $ % % % % & & & & * = = = = - - - ; $ $ $ , > > > , ' ' ' ) ) ) ) ! ! ! ! ~ ~ ~ ~ ",
"        . . . . + + + + @ @ @ @ $ $ $ $ $ $ $ $ $ $ $ $ { ] ] ] ^ / / / ( _ _ _ : < < < ; & & & [ ' ' ' ) ) ) ) ! ! ! ! ~ ~ ~ ~ ",
"        . . . . + + + + @ @ @ @ $ $ $ $ $ $ $ $ $ $ $ $ { ] ] ] ^ / / / ( _ _ _ } < < < ; & & & [ ' ' ' ) ) ) ) ! ! ! ! ~ ~ ~ ~ ",
"| | | | 1 1 1 1 2 3 3 3 4 4 4 4 $ $ $ 5 6 7 7 7 8 9 9 9 0 a a a b c c c d e e e f g g g h i i i ] ) ) ) 1 1 1 1 j j j j k k k k ",
"| | | | 1 1 1 1 2 3 3 3 4 4 4 4 $ $ $ l m n n n o o o o p q q q r s s s t u u u v w w w x y y y ] ) ) ) 1 1 1 1 j j j j k k k k ",
"| | | | 1 1 1 1 2 3 3 3 4 4 4 4 z z z z A A A A z z z z B C C C D E E E F G G G H I I I J I I I I ) ) ) 1 1 1 1 j j j j k k k k ",
"| | | | 1 1 1 1 2 3 3 3 4 4 4 4 z z z z A A A A z z z z B C C C D E E E F G G G H I I I J I I I I ) ) ) 1 1 1 1 j j j j k k k k ",
"K K K K L L L L M M M M N N N N A A A O P Q Q R S T T U V W W W X Y Y Y Z U U U `  . . ...+.+.+.@.#.#.#.$.$.$.$.%.%.%.%.&.&.&.&.",
"K K K K L L L L M M M M N N N N A A A O *.*.*.*.=.-.-.-.;.W W W >.G G G Z -.-.-.,.*.*.*.'.z z z @.#.#.#.$.$.$.$.%.%.%.%.&.&.&.&.",
"K K K K L L L L M M M M N N N N ).).).!.~.{.{.{.].].].].^./././.(._._.:.<.[.[.[.}.|.|.|.1.2.2.2.2.#.#.#.$.$.$.$.%.%.%.%.&.&.&.&.",
"K K K K L L L L M M M M N N N N ).).).3.4.4.4.4.5.5.5.5.6.7.7.7./.7.7.7.8.9.9.9.0.a.a.a.b.c.c.c.c.#.#.#.$.$.$.$.%.%.%.%.&.&.&.&.",
"d.d.d.d.e.e.e.e.f.f.f.f.g.g.g.g.h.h.h.h.i.i.i.i.j.k.k.k.l.m.m.m.n.m.m.m.o.p.p.p.q.r.r.r.s.t.t.t.u.v.v.v.w.w.w.w.x.x.x.x.+ + + + ",
"d.d.d.d.e.e.e.e.f.f.f.f.g.g.g.g.y.y.y.y.z.z.z.z.A.B.B.B.C.D.D.D.E.D.D.D.F.G.G.G.H.I.I.I.J.K.K.K.u.v.v.v.w.w.w.w.x.x.x.x.+ + + + ",
"d.d.d.d.e.e.e.e.f.f.f.f.g.g.g.g.L.L.L.L.M.M.M.M.N.B.B.B.O.P.P.P.Q.R.R.R.S.G.G.G.T.U.U.U.V.W.W.W.X.v.v.v.w.w.w.w.x.x.x.x.+ + + + ",
"d.d.d.d.e.e.e.e.f.f.f.f.g.g.g.g.Y.Y.Y.Y.Z.Z.Z.Z.N.B.B.B.`.`.`.`. +G.G.G. +G.G.G..+++++++@+#+#+#+X.v.v.v.w.w.w.w.x.x.x.x.+ + + + ",
"$+%+%+%+&+*+*+*+=+-+-+-+;+;+;+;+>+>+>+>+,+'+'+)+!+~+~+{+]+^+^+^+/+/+/+/+(+/+/+_+:+<+<+[+}+|+|+|+1+;+;+&+-+-+-+-+&+&+&+*+;+;+2+;+",
"3+4+4+4+;+;+;+;+&+5+5+5+;+;+;+;+6+6+6+6+4+4+4+4+7+K.K.8+9+a.a.a.K.K.K.K.t.K.K.0+4+4+4+4+4+4+4+4+;+;+;+2+5+5+5+5+;+;+;+a+b+4+4+4+",
"c+d+d+d+;+;+;+;+e+5+5+5+f+3+3+3+g+h+h+h+h+g+g+a+i+j+j+k+l+l+l+m+u.K.K.n+o+j+j+p+q+d+d+d+d+d+d+d+3+3+3+%+5+5+5+5+;+;+;+;+d+d+d+d+",
"&+5+5+5+;+;+;+;+&+5+5+5+4+4+4+4+;+;+;+;+;+;+;+;+4+4+4+3+r+K.K.K.K.K.K.s+b+4+4+4+5+5+5+5+5+5+5+5+b+4+4+3+5+5+5+5+;+;+;+;+e+5+5+5+",
"t+;+;+;+e+c+c+c+5+5+5+5+u+c+c+c+e+c+c+c+e+c+c+e+g+g+g+a+v+w+w+w+x+y+y+x+z+g+g+g+e+5+5+5+5+5+5+5+c+c+c+c+e+5+5+5+c+c+c+e+2+;+;+;+",
"2+;+;+;+5+5+5+5+&+5+5+5+e+5+5+5+5+5+5+5+5+5+5+5+;+;+;+;+3+4+4+4+6+6+6+6+;+;+;+;+5+5+5+5+5+5+5+5+5+5+5+5+5+5+5+5+5+5+5+5+a+;+;+;+",
"4+b+b+b+5+5+5+5+5+5+5+5+b+b+b+b+5+5+5+5+5+5+5+5+5+5+5+5+3+4+4+4+6+6+6+6+5+5+5+5+5+5+5+5+5+5+5+5+A+b+b+4+5+5+5+5+5+5+5+e+b+b+b+b+",
"4+4+4+4+5+5+5+5+&+5+5+5+4+4+4+4+5+5+5+5+5+5+5+5+5+5+5+5+3+4+4+4+6+6+6+6+5+5+5+5+5+5+5+5+5+5+5+5+b+4+4+3+5+5+5+5+5+5+5+e+b+4+4+4+",
"B+C+D+E+F+G+G+H+I+G+G+G+J+D+D+D+b+A+A+A+A+A+A+A+5+5+5+5+c+c+c+c+6+6+6+K+e+5+5+5+A+A+A+A+A+A+A+L+M+D+D+C+N+G+G+G+N+G+G+G+D+D+O+P+",
"Q+z z z z z z z R+z z z S+z z z 6+6+6+6+6+6+6+6+5+5+5+5+5+5+5+5+6+6+6+6+5+5+5+5+6+6+6+6+6+6+6+6+T+z z R+z z z z z z z z z z z z ",
"Q+z z z U+V+V+U+z z z z S+z z z 6+6+6+6+6+6+6+6+5+5+5+5+2+;+;+;+6+6+6+6+e+5+5+5+a+a+a+a+6+6+6+6+W+z z R+z z z z V+V+V+X+z z z z ",
"Q+z z z Y+U+U+U+R+z z z S+z z z 6+6+6+6+6+6+6+6+5+5+5+5+2+;+;+;+6+6+6+6+5+5+5+5+;+;+;+;+6+6+6+6+Z+z z R+z z z z U+U+U+U+z z z z ",
"Q+z z z Y+U+U+U+z z z z U+`+`+`+6+6+6+6+5+5+5+5+e+5+5+5+K+6+6+6+;+;+;+;+e+5+5+5+;+;+;+;+6+6+6+6+ @`+`+V+z z z z U+U+U+U+S+z z z ",
"Q+z z z Y+U+U+U+R+z z z U+U+U+U+6+6+6+6+5+5+5+5+5+5+5+5+K+6+6+6+;+;+;+;+5+5+5+5+;+;+;+;+6+6+6+6+.@U+U+V+z z z z U+U+U+U+z z z z ",
"Q+z z z z z z z z z z z U+U+U+U+6+6+6+6+5+5+5+5+5+5+5+5+K+6+6+6+;+;+;+;+5+5+5+5+;+;+;+;+6+6+6+6+ @U+U+V+z z z z z z z z z z z z ",
"Q+z z z z z z z R+z z z U+U+U+U+6+6+6+6+5+5+5+5+5+5+5+5+K+6+6+6+;+;+;+;+5+5+5+5+;+;+;+;+6+6+6+6+ @U+U+V+z z z z z z z z z z z z ",
"z z z z z z z z z z z z U+U+U+U+e+c+c+c+5+5+5+5+e+5+5+5+K+6+6+6+;+;+;+;+5+5+5+5+e+e+e+5++@6+6+6+ @U+U+V++.z z z z z z z z z z z ",
"z z z z z z z z R+z z z U+U+U+U+5+5+5+5+5+5+5+5+5+5+5+5+K+6+6+6+;+;+;+;+5+5+5+5+5+5+5+5+6+6+6+6+ @U+U+V+z z z z z z z z z z z z ",
"Q+z z z z z z z R+z z z S+z z z 6+6+6+6+6+6+6+6+6+6+6++@;+;+;+;+5+5+5+5+;+;+;+;+5+5+5+5+6+6+6+6+Z+z z +.z z z z z z z z z z z z ",
"Q+z z z z z z z R+z z z S+z z z 6+6+6+6+6+6+6+6+6+6+6++@;+;+;+;+5+5+5+5+;+;+;+;+5+5+5+5+6+6+6+6+Z+z z R+z z z z z z z z z z z z ",
"Q+z z z z z z z Y+Y+@@#@$@%@&@%@*@*@*@*@=@*@*@*@=@*@*@*@-@=@=@=@-@-@-@;@>@,@,@'@5+5+5+5+6+6+6+6+W+z z @.Y+Y+Y+)@z z z z z z z z ",
"Q+z z z z z z z U+U+U+!@@.z z z ~@~@~@~@{@~@~@~@~@~@~@~@]@~@~@~@~@~@~@^@/@(@(@_@5+5+5+5+6+6+6+6+Z+:@<@[@U+U+U+!@z z z z z z z z ",
"V+U+U+}@z z z z U+U+U+U+}@U+U+U+|@~@~@~@{@~@~@~@~@~@~@~@]@~@~@~@~@~@~@~@1@~@~@~@2@2@2@3@6+6+6+6+4@U+U+5@U+U+U+!@z z z @.}@U+!@!@",
"V+6@U+U+z z z z !@U+U+U+U+U+U+U+~@~@~@~@~@~@~@~@~@~@~@~@~@~@~@~@~@~@~@~@~@~@~@~@(@(@(@_@6+6+6+6+7@U+U+U+U+U+U+!@z z z @.U+U+U+U+",
"8@8@8@8@9@9@9@9@0@0@0@0@a@a@a@a@b@b@b@b@c@b@b@b@|@b@b@b@d@e@e@e@f@e@e@e@^@e@e@e@|@|@|@|@g@g@g@g@h@h@h@h@i@i@i@i@%.%.%.%.j@j@j@j@",
"8@8@8@8@9@9@9@9@0@0@0@0@a@a@a@a@~@~@~@~@{@~@~@~@~@~@~@~@]@~@~@~@k@~@~@~@l@~@~@~@~@~@~@~@~@~@~@~@h@h@h@h@i@i@i@i@%.%.%.%.j@j@j@j@",
"8@8@8@8@9@9@9@9@0@0@0@0@a@a@a@a@~@~@~@~@{@~@~@~@~@~@~@~@]@~@~@~@k@~@~@~@l@~@~@~@~@~@~@~@~@~@~@~@h@h@h@h@i@i@i@i@%.%.%.%.j@j@j@j@",
"8@8@8@8@9@9@9@9@0@0@0@0@a@a@a@a@~@~@~@~@{@~@~@~@~@~@~@~@]@~@~@~@k@~@~@~@l@~@~@~@~@~@~@~@~@~@~@~@h@h@h@h@i@i@i@i@%.%.%.%.j@j@j@j@",
"m@m@m@m@n@n@n@n@o@o@o@o@p@p@p@p@~@~@~@~@{@~@~@~@~@~@~@~@]@~@~@~@~@~@~@~@l@~@~@~@~@~@~@~@~@~@~@~@q@q@q@q@0@0@0@0@r@r@r@r@s@s@s@s@",
"m@m@m@m@n@n@n@n@o@o@o@o@p@p@p@p@~@~@~@~@{@~@~@~@~@~@~@~@]@~@~@~@~@~@~@~@l@~@~@~@~@~@~@~@~@~@~@~@q@q@q@q@0@0@0@0@r@r@r@r@s@s@s@s@",
"m@m@m@m@n@n@n@n@o@o@o@o@p@p@p@p@~@~@~@~@{@~@~@~@~@~@~@~@]@~@~@~@k@~@~@~@l@~@~@~@~@~@~@~@~@~@~@~@q@q@q@q@0@0@0@0@r@r@r@r@s@s@s@s@",
"m@m@m@m@n@n@n@n@o@o@o@o@p@p@p@p@~@~@~@~@{@~@~@~@~@~@~@~@]@~@~@~@k@~@~@~@l@~@~@~@~@~@~@~@~@~@~@~@q@q@q@q@0@0@0@0@r@r@r@r@s@s@s@s@",
"t@t@t@t@u@u@u@u@v@v@v@v@w@w@w@w@~@~@~@~@{@~@~@~@~@~@~@~@]@~@~@~@~@~@~@~@l@~@~@~@~@~@~@~@~@~@~@~@x@x@x@x@y@y@y@y@~ ~ ~ ~ z@z@z@z@",
"t@t@t@t@u@u@u@u@v@v@v@v@w@w@w@w@~@~@~@~@{@~@~@~@~@~@~@~@]@~@~@~@~@~@~@~@l@~@~@~@~@~@~@~@~@~@~@~@x@x@x@x@y@y@y@y@~ ~ ~ ~ z@z@z@z@",
"t@t@t@t@u@u@u@u@v@v@v@v@w@w@w@w@~@~@~@~@A@(@(@(@(@(@(@B@~@~@~@~@k@~@~@^@/@(@(@(@(@(@(@/@~@~@~@~@x@x@x@x@y@y@y@y@~ ~ ~ ~ z@z@z@z@",
"t@t@t@t@u@u@u@u@v@v@v@v@w@w@w@w@~@~@~@~@A@(@(@(@(@(@(@B@~@~@~@~@k@~@~@^@/@(@(@(@(@(@(@/@~@~@~@~@x@x@x@x@y@y@y@y@~ ~ ~ ~ z@z@z@z@",
"C@C@C@C@x.x.x.x.D@      E@E@E@E@~@~@~@~@{@~@~@~@~@~@~@~@]@~@~@~@~@~@~@~@l@~@~@~@~@~@~@~@~@~@~@~@F@F@F@F@G@G@G@G@H@H@H@H@h@h@h@h@",
"C@C@C@C@x.x.x.x.D@      E@E@E@E@~@~@~@~@{@~@~@~@~@~@~@~@]@~@~@~@~@~@~@~@l@~@~@~@~@~@~@~@~@~@~@~@F@F@F@F@G@G@G@G@H@H@H@H@h@h@h@h@",
"C@C@C@C@x.x.x.x.D@      E@E@E@E@~@~@~@~@{@~@~@~@~@~@~@~@]@~@~@~@~@~@~@~@l@~@~@~@~@~@~@~@~@~@~@~@F@F@F@F@G@G@G@G@H@H@H@H@h@h@h@h@",
"C@C@C@C@x.x.x.x.D@      E@E@E@E@~@~@~@~@{@~@~@~@~@~@~@~@]@~@~@~@~@~@~@~@l@~@~@~@~@~@~@~@~@~@~@~@F@F@F@F@G@G@G@G@H@H@H@H@h@h@h@h@",
"I@I@I@I@J@J@J@J@K@L@L@L@M@M@M@M@~@~@~@~@{@~@~@~@~@~@~@~@]@~@~@~@~@~@~@~@l@~@~@~@~@~@~@~@~@~@~@~@N@N@N@N@$.$.$.$.O@O@O@O@L@L@L@L@",
"I@I@I@I@J@J@J@J@K@L@L@L@M@M@M@M@~@~@~@~@{@~@~@~@~@~@~@~@]@~@~@~@~@~@~@~@l@~@~@~@~@~@~@~@~@~@~@~@N@N@N@N@$.$.$.$.O@O@O@O@L@L@L@L@",
"I@I@I@I@J@J@J@J@K@L@L@L@M@M@M@M@~@~@~@~@{@~@~@~@~@~@~@~@]@~@~@~@~@~@~@~@l@~@~@~@~@~@~@~@~@~@~@~@N@N@N@N@$.$.$.$.O@O@O@O@L@L@L@L@",
"I@I@I@I@J@J@J@J@K@L@L@L@M@M@M@M@~@~@~@~@{@~@~@~@~@~@~@~@]@~@~@~@~@~@~@~@l@~@~@~@~@~@~@~@~@P@~@~@N@N@N@N@$.$.$.$.O@O@O@O@L@L@L@L@",
"Q@Q@Q@Q@R@R@R@R@S@S@S@S@T@T@T@T@U@U@U@U@V@U@U@U@W@U@U@U@U@U@U@U@X@U@U@U@Y@U@U@U@U@U@U@U@U@Z@U@U@`@`@`@`@ # # # #.#.#.#.#+#+#+#+#",
"Q@Q@Q@Q@R@R@R@R@S@S@S@S@T@T@T@T@Y@Y@Y@Y@W@Y@Y@Y@W@Y@Y@Y@Y@Y@Y@Y@@#Y@Y@Y@Y@Y@Y@Y@Y@Y@Y@Y@Y@##Y@Y@`@`@`@`@ # # # #.#.#.#.#+#+#+#+#",
"Q@Q@Q@Q@R@R@R@R@S@S@S@S@T@T@T@T@Y@Y@Y@Y@Y@Y@Y@Y@Y@Y@Y@Y@Y@Y@Y@Y@Y@Y@Y@Y@W@Y@Y@Y@Y@Y@Y@Y@Y@Y@Y@Y@`@`@`@`@ # # # #.#.#.#.#+#+#+#+#",
"Q@Q@Q@Q@R@R@R@R@S@S@S@S@T@T@T@T@Y@Y@Y@Y@W@Y@Y@Y@W@Y@Y@Y@Y@Y@Y@Y@Y@Y@Y@Y@W@Y@Y@Y@Y@Y@Y@Y@Y@Y@Y@Y@`@`@`@`@ # # # #.#.#.#.#+#+#+#+#"};
