/* XPM */
static char *d257cddaf7244c39b6135d454a3924340VMJ6qF2EuYr7nQX[] = {
/* columns rows colors chars-per-pixel */
"64 64 28 1 ",
"  c #4C4C4C",
". c #4E4E4E",
"X c #535353",
"o c gray33",
"O c #585858",
"+ c gray37",
"@ c gray38",
"# c #646464",
"$ c DimGray",
"% c #6F6F6F",
"& c #727272",
"* c #777777",
"= c #797979",
"- c gray49",
"; c #818181",
": c #868686",
"> c #898989",
", c #8E8E8E",
"< c #929292",
"1 c #979797",
"2 c #9A9A9A",
"3 c gray61",
"4 c #A0A0A0",
"5 c #A7A7A7",
"6 c gray67",
"7 c #AFAFAF",
"8 c #B1B1B1",
"9 c gray75",
/* pixels */
"----####@@@#88886666---;%%&%66564445---;####XXXXOO+O$%%%55558888",
"----#####@@#88875656;-;-&%&%65654554----####XXX.OO+O%%$%55557887",
"----####@@@@78786565-;-;%&%%56564444-;-;####X.XXO+OO%$%$45547878",
"----####@##@87875656;-;-%%%&65654554----###@XXXXOOO+%$%%55558787",
">>>>@@@@65656667::::####6656;:::7878,,,>,,,,#@@@####4545--------",
">>>>@@#@56567666:>:>$$$$6565::::8787,,,,,,,,@@####@#5445;;;--;;;",
">>>>@#@@65656767::>:$#$#5656::::7878,,,,,,,,@#@@@@##4454-;-;-;-;",
">>>>@@@#56566666>:::$$##6565::::8788>,,>,,,<@@#@###@5445;-;-;-;-",
"@@@#4444====;;-;;-;-XXXX5656<<<<-;-;-;-;::::oOoO####@@@#1111;;:;",
"##@@4444===-;-;--;-;XXXX6565<<<<;-;-;-;-:;;:OoOo######@@1111:;;:",
"@@#@4444-=-=-;-;;-;-XXX.5656<<<<-;-;-;-;::::oOoO####@@#@1111:;;:",
"@#@@4444====;-;--;--X.XX6566<<<1;-;-;-;-:;::OoOo####@#@@1111;;:;",
"@@#@@@@@3232----%&&&OoOo---;;-;;,,<,-;-;oooOOOOO5455@@##@@@@XXXX",
"#@#@@#@#2323----&&%&oOoO--;-;;;;,<,,;-;-oooOOOOO5554#@@@@#@@XXXX",
"@#@@@@#@3232----&%&&OoOo-;-;;;;;,,,,-;-;OoOoOOOO5455#@@@@#@@XXXX",
"@@@##@@@2322----&&&&oOXX;-;-;;;;,<,<;-;-oOoOOOOO5554@@##@@@@XXXX",
"22216565oOoOoOoOoOoOoOoO$$#$-;-;..X.oOoO56562222--;-;-;-@#@@&%%%",
"22215656OoOoOoOoOoOoOoOo$$$$;-;-XX..oooo65652222-;-;-;-;@@#@%%%%",
"22226565oOoooOoOoOoOoOoO$##$-;-;.X.XoOoo56562222;-;-;-;-##@@%%%%",
"21125656OoOoOoOoOoOoOoOo$$$$;-;-..XXooOo65662222-;-;-;-;@@@#%%%%",
"7777=-=-&&&&676754447767@@##oooo$$$$99993343----<,,<--;-:::>$$$$",
"7777=--=&&&&777744547676#@@@OoOO$##$99993334;-;;<,,,-;-;>>::#$$#",
"7777=---&&&&777744456767#@@@OoOo$$$$99994343-;-;,<,<;-;-::>:$$$$",
"7777---=&&&&767745447676@@##oOoO$#$$99993434;-;-,,,,-;-;:>::$$#$",
"****:>::++++3333;;;;====---;#@@@@@@#@@@#;-;-,,>,:>>><<<<++++OOO+",
"****:>:>++++3333;::;-=-=;---@@#@#@@#@#@@-;-;,,,,>>::,<,<++++O+OO",
"****::>:++++3333;;;;====-;-;@#@#@@@@#@#@;-;->,,,>:>><<<,+++++O+O",
"****>:::++++3333;:;;-===----@#@@@##@@@#@-;--,,>,>>:>,<<<++++OO+O",
"====*****&&*oooO...     XooO>>>>5555;;;;O+++###@&&&&XXXX+O++$$#$",
"====*****&*&OoOo.. .    OoOo>>>>5555;;;;++++@@##&&&&XXXX++++#$$#",
"====****&&*&oOoO. .     oOoO>>>>5555;;;;++++##@#&&&&XXXo+++O#$$#",
"====*****&&*OoOo.. .    OoOo>>>>5556;;;;+O++#@#@&&&&XXXoO+++$$#$",
"#@@@565656565656;;;;++++6666111165656565,<,<$%$%2323,>,,#####@#@",
"@@#@656565656565;;;;+O++676711<156565656<,<,%$%$2232>,,>#####@#@",
"@#@@565656565656;;;;++O+7666<11165656565,<,<$%$%2323>,,>###$@#@@",
"@@@@656665656566;;;;+O++6666111156565656<,<<%$%$3232,>,,#$##@@@#",
"##@@-;-;:::>-;-;,,>,..X.##$#&&&&65656565%$%$;-;-....@@@#65656565",
"@@@#;-;-::::;-;-,,,,X..X#$$#&&&&56565656$%$%-;-;....#@@#56566656",
"@@@#-;-;>:>:-;-;>,,>.XX.$##$&&&&65656565%$%$;-;-....@@@@65656565",
"##@@;-;-::>:;-;-,,,,.X.X#$##&&&&56565656$%$%-;--....@##@56565656",
"XXXXOO+O>>>>;;-;X..X@@@@@#@@$$$$O+OO-;-;-;-;X.XX@@@@65656565;;:;",
"XXXXO+O+>>>>;-;-X.X.@@@#@#@#$$$$OOO+;-;-;-;-....@@@@56565656;;;;",
"XXX.+O+O>>>>-;-;..X.@@@#@@@@$$$$OOO+-;-;-;-;.XX.@@@@65656565:;;:",
"X.XXO+O+>>>>;-;-X..X##@@#@@+$$$$++OO;-;-;-;-X..X@@@@56565656;;;;",
"oOoO@@@@OoOo+OOO@@@#44457767:;;:&*&&XXX.@@@@#@@#7777::::<<<<-;-;",
"OoOo@@@@oOoOOO++##@@54447677;;;;&&&&X.X.@@#@#@@#7777:;;:,<,<;-;-",
"oOoO@@@@OoOoO+OO@@@@44547777;;;;&&&*X.XX##@@@@@@7777::::<<<,-;-;",
"OoOo@@@@oOoOOO+O@#@@55447677:;;;&*&&.XX.@@@#@##@7777::;:,<<<;-;-",
"@@@#343422221111O+OO----5454,<,<66665656@@@#@##@6565;::;::;:OOO+",
"@#@@434322121111OOOO----4545,,,,66666565##@@@@@@5656:;;::;:;O+OO",
"#@#@343311221111OOOO----4545,<,,66665656@@#@#@@#6565::::;;::+O+O",
"@@#@434322211111+OOO----4454,,<<66666566@#@@#@@#5656;:;;::;:OO+O",
"45455555,,,,::>:$$#$@@@@XXX.##$#&&&*::;:----#@@@====>>>>;-;-oOoO",
"44445555,,,,::>:$$$$@@@@....#$#$&**&;::;----@@#@===->>:>-;-;OoOo",
"54554554,,,,:>::$##$@@@@X..X$$##&&&&:;;:----@#@#-=-=::>>;-;-oOoO",
"44445555,,,,:::>$$$$@@@@.XX.##$#**&*:;::----@#@@====>>>:-;-;OoOo",
"$##$,,>,4545--;-&*&&;-;-----+++++++@OO++;-;-@@#@%$%$oOoOoOoO#$##",
"#$##>>,,4445-;-;&**&-;-;;-;-++O+@++@+++O-;-;@#@@$%$%OoOoOoOo####",
"#$#$,>,>4454;-;-*&&*;-;----;+O+++++++++O;-;-@@##%$%$oOoOoOoO#$$#",
"$###,,>,5444-;-;&&*&-;-;;---++O++@@+OO++-;--#@@@$%$%OoooOoOo####",
"::::Xooo****>::>-;-;OoOo##$#5445-;-;;;-;X..X$$$$55455656@##@;;;;",
"::::Xooo****:>::;-;-oOoO$$$$4554;-;-;-;-.XX.$$$$44546565@@@@;;;;",
"::::Xooo****>:>:-;-;OoOo$##$5445-;-;-;-;....$$$$54445656#@@#;;;;",
"::::Xooo****::>:;-;;oOoO#$$#4454;-;-;-;-X.XX$$$$45456566#@@#;;;;"
};
